<svg width="203mm" height="228mm" viewBox="0 0 203 228" xmlns="http://www.w3.org/2000/svg">
    <title>Wappen von Bietigheim-Bissingen</title>
    <path d="M1.5 1.5v125.07a99.9 99.9 0 0 0 29.29 70.662 100.034 100.034 0 0 0 70.71 29.269 100.034 100.034 0 0 0 70.71-29.269 99.891 99.891 0 0 0 29.29-70.662L201.498 1.5z" fill="#da251d"/>
    <g stroke="#000">
        <path d="m111.38 199.468 1.44 3.866c14.189-1.18 27.945-3.007 40.013-7.367l-2.296-40.089-8.772-9.964-6.995-97.308 4.846-6.702 3.751-23.34-10.38-2.126-2.47 11.812a156.925 156.925 0 0 0-10.729-1.515l.696-12.075-12.917-.671-.019 11.975a129.26 129.26 0 0 0-12.103 0l-.018-11.975-12.917.671.648 12.217c-3.59.368-7.168.774-10.635 1.514l-2.515-11.953-10.382 2.125 3.752 23.341 4.846 6.702-6.995 97.308-8.772 9.964-2.295 40.09c12.068 4.36 25.824 6.186 40.012 7.366l1.44-3.866z" fill="#fff" stroke-linejoin="round" stroke-width="1.99996022"/>
        <path d="M105.97 60.886V72.97h15.87v7.743h-15.87v9.455h19.083v8.137H105.97v23.836l10.583 17.175-7.182 4.536-7.871-13.55-7.872 13.55-7.181-4.536 10.583-17.175V98.305H77.947v-8.137H97.03v-9.455H81.16V72.97h15.87V60.886z" fill="#005198" stroke-linejoin="round" stroke-width="2"/>
        <g fill="none" stroke-width="2">
            <path d="M68.315 48.696c22.143-4.137 44.286-4.178 66.429 0M63.685 42.176c25.075-5.942 50.269-6.152 75.595 0M60.253 146.821c27.381 6.482 54.762 6.871 82.143 0M52.315 155.701c32.487 8.97 65.217 9.173 98.207 0"/>
        </g>
        <path d="M115.5 195.24a10.5 10.5 0 0 1-10.5 10.5 10.5 10.5 0 0 1-10.5-10.5 10.5 10.5 0 0 1 10.5-10.5 10.5 10.5 0 0 1 10.5 10.5z" stroke-linecap="round" stroke-linejoin="round" stroke-width="2" style="paint-order:normal" transform="translate(-3.5 -16.699)"/>
        <path d="M94.5 195.24h21l.05 22.782-.751-2.15-19.51-.057-.839 2.207z" stroke-linecap="round" stroke-linejoin="round" stroke-width="2" style="paint-order:normal" transform="translate(-3.5 -16.699)"/>
    </g>
    <path d="M1.5 1.5v125.07a99.9 99.9 0 0 0 29.29 70.662 100.034 100.034 0 0 0 70.71 29.269 100.034 100.034 0 0 0 70.71-29.269 99.891 99.891 0 0 0 29.29-70.662L201.498 1.5z" fill="none" stroke="#000" stroke-linecap="square" stroke-miterlimit="8" stroke-width="3"/>
</svg>
