<svg xmlns="http://www.w3.org/2000/svg" id="svg15" viewBox="0 0 300 285">
  <defs>
    <clipPath id="clippath">
      <path d="m0 .39 20.11 67.69-18.77 64.33 17.43 73.08-16.76 78.13 276.67.38 15.94-78.85-17.09-73.01 21.45-64.04L279.57 0S1 .07 0 .4Z" class="cls-2"/>
    </clipPath>
    <clipPath id="clippath-1">
      <path d="m0 .39 20.11 67.69-18.77 64.33 17.43 73.08-16.76 78.13 276.67.38 15.94-78.85-17.09-73.01s1.01-10.16 7.71-28.01l13.74-36.04L279.57 0S1 .07 0 .4Z" class="cls-2"/>
    </clipPath>
    <clipPath id="clippath-2">
      <circle cx="198.89" cy="114.13" r="88.71" class="cls-2"/>
    </clipPath>
    <style>
      .cls-1{fill:#b3b3b3}.cls-1,.cls-2,.cls-4,.cls-5,.cls-7{stroke-width:0}.cls-2{fill:none}.cls-4{fill:#9bc4ff}.cls-5{fill:#e6ebbf}.cls-7{fill:#aad273}
    </style>
  </defs>
  <g id="Farbe">
    <path id="Karte_grün" d="m0 .39 20.11 67.69-18.77 64.33 17.43 73.08-16.76 78.13 276.67.38 15.94-78.85-17.09-73.01 21.45-64.04L279.57 0S1 .07 0 .4Z" class="cls-5"/>
    <g style="clip-path:url(#clippath)">
      <g id="g6">
        <path id="path3" d="M47.59 277.22c-8.04-6.4-23.13-7.75-24.47-17.85s12.4-13.47 18.44-19.2 2.68-15.16-3.02-16.5c-.36-.08-.72-.12-1.09-.12-5.4-.13-10.28 5.86-12.7 7.88-3.42 2.88-13.07 5.23-26.01 6.43l-16.52 54.87 71.06 9.77s2.35-18.86-5.7-25.26Z" class="cls-7"/>
        <path id="path4" d="M58.76 88.73c-2.61-4.76-7.79-5.87-14.63-6.78S27.34 67.76 20.21 67.76c-12.96 0-23.48 53.45-23.48 53.45l5.78 19.14s16.6-5.58 18.01-15.79c1.42-10.21-7.11-12.54.9-18.82 7.99-6.28 14.95.75 23.18 1.79 14.27 1.79 17.82-13.05 14.61-17.82-.2-.31-.27-.69-.44-1.01h-.01Z" class="cls-7"/>
        <path id="path5" d="M299.81-14.7c-25.47-2.61-153.18-1.17-163.82-.11-11.89 1.2-67.77 5.97-35.66 54.95C117.21 65.9 79.52 74.79 90.22 93.3c5.91 10.22 17.24 9.55 15.38 29.21 4.12 17.12 75.98-12.02 84.71-11.29l29.13-31.95 20.51 3.58 21.4-31.36 6.34 11.34c1.85.12 29.93-19.96 32.1-16.72.01.03.03.04.04.07v-60.89h-.01Z" class="cls-7"/>
        <path id="path6" d="M303.31 71.37c-4.14 9.39-12.86 22.11-14.59 29.15l.04 4.94c3.42 25.39-7.29 49.02-26.13 69.01 0 0-21.79 19.82-19.27 20.07-14.27 10.75-11.77 37.56-12.09 42.93-.34 5.73-6.41 7.71-11.1 15.16-5.35 8.51-1.13 28.33 13.29 48.54l70.15-1.2s-.47-135.72-.31-228.59h.01Z" class="cls-7"/>
        <path id="Wasser" d="M201.78 81.96c-18.44-2.99-63.6 1.79-87.21 25.64-14.39 14.54-20.47 52.44-22.89 60.32-2.41 7.88-19.41 28.21-22.77 31.91s-17.67 5.48-25.41 6.88c-9.16 1.67-18.85 8.28-22.22 10.67-3.37 2.38-8.62 2.09-11.97 3.91-.07.24-.44 6.78-.62 7.5 6.68-2.16 17.79-5.89 24.11-11.11 7.19-5.94 26.29-6.13 35.81-10.6 9.51-4.49 17.72-27.47 34.15-32.86 16.42-5.39 26.6 16.45 31.67 24.99 4.68 7.89 9.12 14.71 12.59 19.99 3.55 5.39 10.73 17.77 11.64 20.42 2.28 6.61-18.6 24.07-20.81 27.32-2.21 3.25-4.29 19.34-4.81 22.63l6.37-2.02s1.22-14.82 4.09-18.67c3.9-5.23 14.79-13.22 20.66-21.94.97 1.27 6.25 4.78 22.52 17.32 8.46 7.4 7.12 17.03 8.69 20.61l7.36.23c-1.64-5.82-1.62-15.88-7.13-21.96-6.7-7.41-21.18-14.55-32.41-28.48-3.08-3.83-6.3-10.93-10.12-17.14-.78-1.28-2.96-4.85-4.85-8.42-5-14.28 10.82-25.93 9.93-42.06-.88-16.06-4.56-33.44 8.85-36.13s21.89 12.66 35.3 17.04 28.83-21.22 26.48-36.37c-1.61-10.41-8.58-26.66-27.02-29.64h.01Z" class="cls-4"/>
      </g>
    </g>
    <g style="clip-path:url(#clippath-1)">
      <g id="g10">
        <path id="path7" d="M106.61 248.48c3.46 10.08-22.7 20.14-7.84 37.91" style="stroke:#f3c571;stroke-width:5px;fill:none"/>
        <path id="AZ" d="M67.93-1.2s-22.9 35.01-17.99 46.04 32.1 15.96 28.09 29.41c-2.95 9.87-28.24 5.24-33.44 17.92-5.2 12.68 36.4 28.38 24.52 47.04-10.5 16.48-3.08 33.73 7.13 44.79 11.6 12.54 24.78 17.51 25.63 27.28-2.12 4.84-2.37 11.19-2.68 18.06 0 27.33 22.83 29.21 40.52 5.52 6.97-9.34 17.04-15.57 21.47-15.16 4.42.42 11.37 6.72 16.72 11.42 5.05 4.45 17.72 15.61 30.98 9.86 22-9.55-2.44-50.02 8.17-77.8 13.68-35.83 48.75-38.23 65.39-60.32" style="stroke-width:6px;stroke:#e08584;stroke-linecap:round;stroke-linejoin:round;fill:none"/>
      </g>
    </g>
    <g id="houses">
      <path id="rect10" d="m37.08 194.51 2.68 6.25-13.49 5.86-2.69-6.24 13.5-5.87z" class="cls-1"/>
      <path id="rect12" d="M43.42 192.22h9.04v6.51h-9.04z" class="cls-1" transform="rotate(-5.18 47.874 195.332)"/>
      <path id="polygon13" d="m79.74 165.09 3.33-13.86 7.79 1.57-4.21 16.05-3.88 5.74-6.46-4.42 3.43-5.08z" class="cls-1"/>
      <path id="rect11" d="m60.04 32.39 3.98-7.53 10.79 5.75-3.98 7.53-10.79-5.75z" class="cls-1"/>
      <path id="rect13" d="m74.24 5.01 7.3 3.94-8.78 16.42-7.3-3.94 8.78-16.42z" class="cls-1"/>
    </g>
    <path id="path14" d="m0 .39 20.11 67.69-18.77 64.33 17.43 73.08-16.76 78.13 276.67.38 15.94-78.85-17.09-73.01 21.45-64.04L279.57 0S1 .07 0 .4Z" style="stroke:#ccc;stroke-width:.74px;fill:none"/>
  </g>
  <g style="clip-path:url(#clippath-2)">
    <g id="g13">
      <path id="green" d="M324.19-70.49c2.18-5.24-203.75-3.1-219.24-1.55-15.5 1.55-88.32 7.74-46.48 71.28 22 33.4-27.11 44.93-13.17 68.95 7.7 13.27 22.47 12.39 20.04 37.88 5.55 22.94 11.41 38.43 32 68.82 13.49 19.91 37.41 36.48 80.64 37.08 18.24.26 53.43-13.8 66.92-12.46-18.59 13.95-15.35 48.72-15.75 55.68-.43 7.42-8.36 9.99-14.46 19.65-6.98 11.03-1.47 36.73 17.33 62.94l91.42-1.55s-1.41-401.49.78-406.73h-.03Z" class="cls-5"/>
      <path id="yellow" d="M266.62 176.96c-45.04 45.04-118.06 45.04-163.1 0-20.78-20.78-29.73-47.73-33.57-74.7-3.27-22.93 73.76-6.29 81.56-11.02 5.23-3.17 56.32 5.95 58.44.32 7.94-21.09 26.03-15.04 37.54-22.06 9.88-6.01 16.63-24.19 37.54-22.65 2.39.17 30.54-44.09 33.36-39.88 3.27 4.87 4.53 14.95 6.98 20.15 4.56 9.7-23.4 43.84-21.69 54.23 5.82 35.42-9.73 68.28-37.06 95.59h.01Z" style="fill:#ffffc8;stroke-width:0"/>
      <g id="street">
        <g id="use269-2">
          <path id="AZ-2" d="M16.26-54.4S-13.59-8.98-7.19 5.33c6.4 14.32 41.84 20.7 36.61 38.13-3.84 12.81-36.8 6.8-43.57 23.24-6.77 16.44 47.45 36.8 31.96 61.01-13.68 21.37-4.02 43.76 9.3 58.1 15.11 16.26 32.3 22.71 33.4 35.38-2.77 6.28-3.1 14.53-3.48 23.44 0 35.44 29.76 37.88 52.79 7.16 9.09-12.11 22.2-20.19 27.97-19.66 5.77.52 14.81 8.71 21.79 14.81 6.59 5.77 23.09 20.26 40.39 12.78 28.67-12.39-3.17-64.86 10.63-100.91 17.82-46.48 63.53-49.58 85.21-78.25" style="stroke:#e08584;stroke-linecap:round;stroke-linejoin:round;stroke-width:10.48px;fill:none"/>
        </g>
      </g>
      <path id="water" d="M190.68 53.48c-24.02-3.87-82.9 2.33-113.67 33.25-18.75 18.84-26.69 68.02-29.82 78.25s-25.3 36.59-29.66 41.4-23.02 7.11-33.1 8.94c-11.94 2.16-24.57 10.75-28.95 13.84-4.4 3.09-11.24 2.72-15.6 5.08-.08.32-.58 8.79-.79 9.73 8.7-2.81 23.19-7.63 31.41-14.41 9.37-7.71 34.27-7.94 46.67-13.75 12.39-5.81 23.1-35.62 44.52-42.61 21.4-6.99 34.68 21.33 41.28 32.42 6.1 10.24 11.88 19.09 16.41 25.93 4.62 6.99 13.98 23.04 15.17 26.49 2.97 8.58-24.23 31.22-27.11 35.44-2.88 4.22-5.59 25.08-6.26 29.35l8.31-2.63s1.59-19.22 5.32-24.21c5.09-6.79 19.27-17.14 26.92-28.47 1.26 1.64 8.13 6.2 29.35 22.47 11.02 9.58 9.29 22.08 11.32 26.73l9.58.3c-2.14-7.54-2.12-20.6-9.29-28.49-8.74-9.61-27.61-18.87-42.24-36.93-4.02-4.96-8.21-14.17-13.19-22.22-1.02-1.65-3.87-6.29-6.33-10.91-6.52-18.52 13.37-33.6 12.94-54.54-.36-17.38 3.19-36.75 17.12-40.43 17.23-4.56 22.96 9.97 40.43 15.66s37.57-27.53 34.52-47.18c-2.1-13.51-11.18-34.57-35.2-38.45l-.04-.05Z" class="cls-4"/>
    </g>
  </g>
  <g id="Parkraum">
    <circle id="Lupe_Glas_dunkel" cx="198.13" cy="114.13" r="88.79" style="fill:#376feb;stroke-width:0"/>
    <path id="path13" d="M241.22 95.58c0 23.53-17.02 34.04-40.1 34.04h-11.99v35.66H169.6V63.03h30.19c25.75 0 41.43 10.51 41.43 32.56Zm-20.42 0c0-12.87-7.84-18.2-21.16-18.2h-10.51v37.59h10.51c13.02 0 21.16-4.44 21.16-19.39Z" style="fill:#fff;stroke-width:0"/>
  </g>
  <g id="Lupe">
    <path id="path15" d="m58.16 267.96-13.84-13.84c-.91-.91-1.04-2.27-.28-3.04l84.46-75.87c.75-.75 2.13-.63 3.04.28l5.26 5.26c.91.91 1.04 2.27.28 3.04l-75.87 84.46c-.75.75-2.13.63-3.04-.28Z" style="fill:#000;stroke-width:11.07px;stroke-miterlimit:13.45;stroke:#000"/>
    <circle id="circle15" cx="198.13" cy="114.13" r="88.79" style="stroke-miterlimit:13.45;stroke:#000;stroke-width:15.47px;fill:none"/>
  </g>
</svg>
