<svg xmlns="http://www.w3.org/2000/svg" fill="none" viewBox="0 0 296.426 379.213">
  <path fill="url(#a)" stroke="#115e59" stroke-width="2"
    d="m216.064 226.588-6.584 7.36a2.614 2.614 0 0 0-.667 1.744c0 1.578.725 3.07 1.966 4.045l4.17 3.275a9.958 9.958 0 0 1 1.56 1.531l.71.867a8.866 8.866 0 0 1 1.55 8.417 8.877 8.877 0 0 0-.456 2.804v.065c0 1.948.614 3.846 1.754 5.425l10.476 14.505a10.027 10.027 0 0 0 1.79 1.897l24.573 20.023a9.998 9.998 0 0 1 2.321 2.713l3.618 6.202a5.625 5.625 0 0 1-7.9 7.566l-2.94-1.89a2.797 2.797 0 0 0-4.308 2.231l-.2 4.6a7.607 7.607 0 0 1-3.87 6.297l-10.494 5.903a3.572 3.572 0 0 0-.854 5.554l4.247 4.53a10.002 10.002 0 0 1 2.646 5.765l1.268 11.722a4.998 4.998 0 0 1-8.13 4.404l-.896-.732a5.727 5.727 0 0 1-2.1-4.433 5.728 5.728 0 0 0-4.113-5.495l-.7-.206a5.727 5.727 0 0 0-6.089 1.916 5.726 5.726 0 0 1-4.155 2.141l-12.895.716a9.994 9.994 0 0 0-4.718 1.49l-11.146 6.916a9.984 9.984 0 0 1-2.526 1.12l-3.855 1.101a10.002 10.002 0 0 1-9.415-2.163l-4.394-3.932a5.399 5.399 0 0 0-2.29-1.214l-.247-.062c-3.28-.82-6.458 1.661-6.458 5.043 0 .558-.09 1.113-.267 1.643l-1.165 3.496a6.267 6.267 0 0 1-4.332 4.074l-.382.102a5.702 5.702 0 0 1-7.144-6.077l.6-5.982a3.2 3.2 0 0 0-4.372-3.288l-2.654 1.061a8.625 8.625 0 0 1-1.614.47l-3.76.705a9.998 9.998 0 0 1-6.483-.97l-5.247-2.749a10 10 0 0 0-4.64-1.142h-.068c-2.249 0-4.432-.758-6.197-2.15l-4.05-3.199a10.002 10.002 0 0 0-6.196-2.15h-4.765a1.117 1.117 0 0 0-.6 2.059l2.532 1.61a2.816 2.816 0 0 1 1.304 2.376v.336a3.426 3.426 0 0 1-1.895 3.065l-.735.368a4.758 4.758 0 0 1-5.782-1.21l-4.767-5.72a1.533 1.533 0 0 0-2.671.637l-.699 3.025a4.605 4.605 0 0 1-2.2 2.953 4.653 4.653 0 0 1-3.668.41l-1.184-.364a7.49 7.49 0 0 0-6.358.926l-.648.433a5.747 5.747 0 0 1-7.632-1.142l-.61-.744a7.308 7.308 0 0 1-1.65-4.627v-8.529c0-1.23.227-2.452.67-3.6l9.848-25.516a10 10 0 0 1 1.273-2.324l9.11-12.39a7.395 7.395 0 0 0-4.74-11.673L56.6 287.906a3.482 3.482 0 0 1-2.116-1.22l-4.838-5.875c-.448-.545-1.333-.228-1.333.478a.75.75 0 0 1-.335.626l-2.769 1.846a4.723 4.723 0 0 1-5.597-.264l-2.842-2.309a2.19 2.19 0 0 0-3.458 1.007 2.19 2.19 0 0 1-2.077 1.497h-1.114a3.735 3.735 0 0 1-3.34-2.064l-3.742-7.485a10 10 0 0 0-1.873-2.598l-3.529-3.529a6.596 6.596 0 0 1-.824-8.324 6.596 6.596 0 0 0-.824-8.324l-4.04-4.04c-3.88-3.879-3.713-10.217.364-13.886l1.086-.977c3.486-3.138 3.63-8.558.312-11.875l-.22-.22a7.437 7.437 0 0 1-2.178-5.258 7.436 7.436 0 0 0-2.596-5.646l-1.807-1.548c-3.14-2.692-3.003-7.592.282-10.104a6.501 6.501 0 0 0 2.49-4.267l1.89-13.542a7.714 7.714 0 0 0-3.983-7.857c-4.283-2.306-5.387-7.953-2.29-11.703l.52-.629a8.382 8.382 0 0 1 7.648-2.959l1.046.15a9.999 9.999 0 0 0 8.311-2.659l6.183-5.888a10.011 10.011 0 0 0 1.424-1.694l1.703-2.555a10.041 10.041 0 0 0-1.01-12.4l-.695-.745a8.914 8.914 0 0 1 3.287-14.392l.423-.164a9.883 9.883 0 0 0 5.966-6.664l5.63-21.11a6.555 6.555 0 0 0-2.137-6.724l-1.837-1.53a4.474 4.474 0 0 1-.145-6.747l2.045-1.859c2.024-1.84.958-5.208-1.757-5.548l-.444-.055a1.9 1.9 0 0 1-1.108-.542c-1.079-1.079-.51-2.925.988-3.21l5.295-1.01a1.631 1.631 0 0 1 1.92 1.372 1.631 1.631 0 0 0 2.026 1.348l7.263-1.895a8.33 8.33 0 0 1 4.876.205l8.332 2.941A10 10 0 0 0 81.78 62.78l8.574-9.432c1.28-1.407 2.94-2.4 4.752-2.98 1.426-.457 2.707-.939 2.707-1.175 0-4.993 8.59-4.229 4.764-7.439l-.695-.583a4.333 4.333 0 0 0-1.265-.739l-1.219-.457a6.462 6.462 0 0 1-3.246-2.682l-1.443-2.36c-1.468-2.403-.278-5.545 2.413-6.373l2.04-.628c2.417-.744 3.032-3.881 1.074-5.483a3.17 3.17 0 0 1-1.119-1.933l-.183-1.1a6.136 6.136 0 0 0-4.223-4.849l-2.396-.748a4.097 4.097 0 0 1-1.557-6.921l1.656-1.528a7.585 7.585 0 0 1 6.755-1.839l27.638 6.009a8.074 8.074 0 0 1 4.815 3.14l.47.645a6.35 6.35 0 0 1 1.038 5.215l-1.198 4.99c-.522 2.177 1.388 4.162 3.583 3.723.198-.04.4-.06.602-.06h3.688a10 10 0 0 1 6.247 2.191l3.52 2.816a4.92 4.92 0 0 0 2.828 1.072l4.586.23c1.711.085 2.88-1.704 2.113-3.236a2.239 2.239 0 0 1 .557-2.709l2.312-1.956a4.404 4.404 0 0 1 5.69 0c1.968 1.664 2.08 4.668.257 6.49a4.44 4.44 0 0 0-1.273 2.645l-.054.486a5.821 5.821 0 0 1-2.25 3.981l-5.12 3.915a5.057 5.057 0 0 0-1.834 2.791c-.798 3.192 1.616 6.284 4.906 6.284h1.623a6.34 6.34 0 0 1 1.764.25l8.88 2.579a6.344 6.344 0 0 0 7.751-3.981 6.345 6.345 0 0 1 3.85-3.864l10.271-3.668c.588-.21 1.155-.475 1.694-.79l9.932-5.823a10.001 10.001 0 0 1 7.931-.951l4.295 1.289c.996.298 2.06.273 3.04-.073l2.433-.859c2.16-.762 2.84-3.484 1.292-5.173a3.196 3.196 0 0 1 .276-4.586l4.71-4.038a5.925 5.925 0 0 1 6.961-.547l.672.413a4.513 4.513 0 0 1 2.148 3.844v.22a4.11 4.11 0 0 0 1.905 3.47 4.113 4.113 0 0 1 1.181 5.8l-2.338 3.4a4.808 4.808 0 0 1-1.947 1.641l-.327.151a4.51 4.51 0 0 0-1.766 6.737c1.69 2.34 5.111 2.513 7.028.356l.691-.777a5.345 5.345 0 0 1 7.571-.422l3.648 3.283a2.506 2.506 0 0 1-.25 3.922c-1.655 1.145-1.352 3.676.526 4.398l.838.322a2.982 2.982 0 0 1 1.714 1.718l8.393 21.982a9.997 9.997 0 0 1-.538 8.308l-4.217 7.833a9.999 9.999 0 0 0 2.866 12.786l9.331 6.887a6.933 6.933 0 0 1 2.083 8.678 6.939 6.939 0 0 0-.236 5.676l2.13 5.321a10.01 10.01 0 0 1 .714 3.714v15.431a9.998 9.998 0 0 0 2.93 7.071l2.368 2.37c.796.795 1.451 1.72 1.94 2.732l4.06 8.432a7.601 7.601 0 0 1-.197 6.973l-5.24 9.484c-1.265 2.287-4.654 1.944-5.433-.55a2.965 2.965 0 0 0-1.768-1.885l-3.909-1.504a2.687 2.687 0 0 0-2.388.23l-.574.358a2.148 2.148 0 0 0-.38 3.34 2.147 2.147 0 0 1-.545 3.432l-52.695 26.81a9.998 9.998 0 0 0-2.918 2.245z"
    style="fill:url(#a)" />
  <path stroke="#fff" stroke-linejoin="round" stroke-width="7" d="M6.313 158.692h75.564l-58.583 114" />
  <path stroke="#fff" stroke-dasharray="18, 18" stroke-linejoin="round" stroke-width="7"
    d="M279.877 158.83H217.72l23.157 56.362" />
  <path fill="#fff"
    d="M218.961 162.437a3.5 3.5 0 1 1-.014-7zm61.924-.126-61.924.126-.014-7 61.923-.126z" />
  <circle cx="149.099" cy="153.781" r="65.589" stroke="#fff" stroke-width="7" />
  <path stroke="#115e59" stroke-width="6"
    d="m216.064 226.588-6.584 7.36a2.614 2.614 0 0 0-.667 1.744c0 1.578.725 3.07 1.966 4.045l4.17 3.275a9.958 9.958 0 0 1 1.56 1.531l.71.867a8.866 8.866 0 0 1 1.55 8.417 8.877 8.877 0 0 0-.456 2.804v.065c0 1.948.614 3.846 1.754 5.425l10.476 14.505a10.027 10.027 0 0 0 1.79 1.897l24.573 20.023a9.998 9.998 0 0 1 2.321 2.713l3.618 6.202a5.625 5.625 0 0 1-7.9 7.566l-2.94-1.89a2.797 2.797 0 0 0-4.308 2.231l-.2 4.6a7.607 7.607 0 0 1-3.87 6.297l-10.494 5.903a3.572 3.572 0 0 0-.854 5.554l4.247 4.53a10.002 10.002 0 0 1 2.646 5.765l1.268 11.722a4.998 4.998 0 0 1-8.13 4.404l-.896-.732a5.727 5.727 0 0 1-2.1-4.433 5.728 5.728 0 0 0-4.113-5.495l-.7-.206a5.727 5.727 0 0 0-6.089 1.916 5.726 5.726 0 0 1-4.155 2.141l-12.895.716a9.994 9.994 0 0 0-4.718 1.49l-11.146 6.916a9.984 9.984 0 0 1-2.526 1.12l-3.855 1.101a10.002 10.002 0 0 1-9.415-2.163l-4.394-3.932a5.399 5.399 0 0 0-2.29-1.214l-.247-.062c-3.28-.82-6.458 1.661-6.458 5.043 0 .558-.09 1.113-.267 1.643l-1.165 3.496a6.267 6.267 0 0 1-4.332 4.074l-.382.102a5.702 5.702 0 0 1-7.144-6.077l.6-5.982a3.2 3.2 0 0 0-4.372-3.288l-2.654 1.061a8.625 8.625 0 0 1-1.614.47l-3.76.705a9.998 9.998 0 0 1-6.483-.97l-5.247-2.749a10 10 0 0 0-4.64-1.142h-.068c-2.249 0-4.432-.758-6.197-2.15l-4.05-3.199a10.002 10.002 0 0 0-6.196-2.15h-4.765a1.117 1.117 0 0 0-.6 2.059l2.532 1.61a2.816 2.816 0 0 1 1.304 2.376v.336a3.426 3.426 0 0 1-1.895 3.065l-.735.368a4.758 4.758 0 0 1-5.782-1.21l-4.767-5.72a1.533 1.533 0 0 0-2.671.637l-.699 3.025a4.605 4.605 0 0 1-2.2 2.953 4.653 4.653 0 0 1-3.668.41l-1.184-.364a7.49 7.49 0 0 0-6.358.926l-.648.433a5.747 5.747 0 0 1-7.632-1.142l-.61-.744a7.308 7.308 0 0 1-1.65-4.627v-8.529c0-1.23.227-2.452.67-3.6l9.848-25.516a10 10 0 0 1 1.273-2.324l9.11-12.39a7.395 7.395 0 0 0-4.74-11.673L56.6 287.906a3.482 3.482 0 0 1-2.116-1.22l-4.838-5.875c-.448-.545-1.333-.228-1.333.478a.75.75 0 0 1-.335.626l-2.769 1.846a4.723 4.723 0 0 1-5.597-.264l-2.842-2.309a2.19 2.19 0 0 0-3.458 1.007 2.19 2.19 0 0 1-2.077 1.497h-1.114a3.735 3.735 0 0 1-3.34-2.064l-3.742-7.485a10 10 0 0 0-1.873-2.598l-3.529-3.529a6.596 6.596 0 0 1-.824-8.324 6.596 6.596 0 0 0-.824-8.324l-4.04-4.04c-3.88-3.879-3.713-10.217.364-13.886l1.086-.977c3.486-3.138 3.63-8.558.312-11.875l-.22-.22a7.437 7.437 0 0 1-2.178-5.258 7.436 7.436 0 0 0-2.596-5.646l-1.807-1.548c-3.14-2.692-3.003-7.592.282-10.104a6.501 6.501 0 0 0 2.49-4.267l1.89-13.542a7.714 7.714 0 0 0-3.983-7.857c-4.283-2.306-5.387-7.953-2.29-11.703l.52-.629a8.382 8.382 0 0 1 7.648-2.959l1.046.15a9.999 9.999 0 0 0 8.311-2.659l6.183-5.888a10.011 10.011 0 0 0 1.424-1.694l1.703-2.555a10.041 10.041 0 0 0-1.01-12.4l-.695-.745a8.914 8.914 0 0 1 3.287-14.392l.423-.164a9.883 9.883 0 0 0 5.966-6.664l5.63-21.11a6.555 6.555 0 0 0-2.137-6.724l-1.837-1.53a4.474 4.474 0 0 1-.145-6.747l2.045-1.859c2.024-1.84.958-5.208-1.757-5.548l-.444-.055a1.9 1.9 0 0 1-1.108-.542c-1.079-1.079-.51-2.925.988-3.21l5.295-1.01a1.631 1.631 0 0 1 1.92 1.372 1.631 1.631 0 0 0 2.026 1.348l7.263-1.895a8.33 8.33 0 0 1 4.876.205l8.332 2.941A10 10 0 0 0 81.78 62.78l8.574-9.432c1.28-1.407 2.94-2.4 4.752-2.98 1.426-.457 2.707-.939 2.707-1.175 0-4.993 8.59-4.229 4.764-7.439l-.695-.583a4.333 4.333 0 0 0-1.265-.739l-1.219-.457a6.462 6.462 0 0 1-3.246-2.682l-1.443-2.36c-1.468-2.403-.278-5.545 2.413-6.373l2.04-.628c2.417-.744 3.032-3.881 1.074-5.483a3.17 3.17 0 0 1-1.119-1.933l-.183-1.1a6.136 6.136 0 0 0-4.223-4.849l-2.396-.748a4.097 4.097 0 0 1-1.557-6.921l1.656-1.528a7.585 7.585 0 0 1 6.755-1.839l27.638 6.009a8.074 8.074 0 0 1 4.815 3.14l.47.645a6.35 6.35 0 0 1 1.038 5.215l-1.198 4.99c-.522 2.177 1.388 4.162 3.583 3.723.198-.04.4-.06.602-.06h3.688a10 10 0 0 1 6.247 2.191l3.52 2.816a4.92 4.92 0 0 0 2.828 1.072l4.586.23c1.711.085 2.88-1.704 2.113-3.236a2.239 2.239 0 0 1 .557-2.709l2.312-1.956a4.404 4.404 0 0 1 5.69 0c1.968 1.664 2.08 4.668.257 6.49a4.44 4.44 0 0 0-1.273 2.645l-.054.486a5.821 5.821 0 0 1-2.25 3.981l-5.12 3.915a5.057 5.057 0 0 0-1.834 2.791c-.798 3.192 1.616 6.284 4.906 6.284h1.623a6.34 6.34 0 0 1 1.764.25l8.88 2.579a6.344 6.344 0 0 0 7.751-3.981 6.345 6.345 0 0 1 3.85-3.864l10.271-3.668c.588-.21 1.155-.475 1.694-.79l9.932-5.823a10.001 10.001 0 0 1 7.931-.951l4.295 1.289c.996.298 2.06.273 3.04-.073l2.433-.859c2.16-.762 2.84-3.484 1.292-5.173a3.196 3.196 0 0 1 .276-4.586l4.71-4.038a5.925 5.925 0 0 1 6.961-.547l.672.413a4.513 4.513 0 0 1 2.148 3.844v.22a4.11 4.11 0 0 0 1.905 3.47 4.113 4.113 0 0 1 1.181 5.8l-2.338 3.4a4.808 4.808 0 0 1-1.947 1.641l-.327.151a4.51 4.51 0 0 0-1.766 6.737c1.69 2.34 5.111 2.513 7.028.356l.691-.777a5.345 5.345 0 0 1 7.571-.422l3.648 3.283a2.506 2.506 0 0 1-.25 3.922c-1.655 1.145-1.352 3.676.526 4.398l.838.322a2.982 2.982 0 0 1 1.714 1.718l8.393 21.982a9.997 9.997 0 0 1-.538 8.308l-4.217 7.833a9.999 9.999 0 0 0 2.866 12.786l9.331 6.887a6.933 6.933 0 0 1 2.083 8.678 6.939 6.939 0 0 0-.236 5.676l2.13 5.321a10.01 10.01 0 0 1 .714 3.714v15.431a9.998 9.998 0 0 0 2.93 7.071l2.368 2.37c.796.795 1.451 1.72 1.94 2.732l4.06 8.432a7.601 7.601 0 0 1-.197 6.973l-5.24 9.484c-1.265 2.287-4.654 1.944-5.433-.55a2.965 2.965 0 0 0-1.768-1.885l-3.909-1.504a2.687 2.687 0 0 0-2.388.23l-.574.358a2.148 2.148 0 0 0-.38 3.34 2.147 2.147 0 0 1-.545 3.432l-52.695 26.81a9.998 9.998 0 0 0-2.918 2.245z" />
  <path fill="#115e59" fill-rule="evenodd"
    d="M171.94 123.95a1.925 1.925 0 0 1 1.263 3.62l-.328.114-5.618 1.406 1.832 4.973c.053.111.097.23.13.35l4.817 13.078c1.33-.327 2.72-.5 4.15-.5 9.567 0 17.324 7.756 17.324 17.325 0 9.568-7.757 17.325-17.325 17.325s-17.325-7.757-17.325-17.325c0-6.778 3.892-12.647 9.563-15.493l-3.659-9.932-19.757 26.577-.23.26-.267.207-.294.156-.312.102-.325.048h-7.925c-.958 8.662-8.302 15.4-17.219 15.4-9.568 0-17.325-7.757-17.325-17.325 0-9.569 7.757-17.325 17.325-17.325 3.764 0 7.247 1.2 10.09 3.24l4.916-5.465-3.787-9.324h-3.518a1.925 1.925 0 0 1-.346-3.819l.346-.03h4.727c.057-.003.115-.003.172 0h6.651a1.925 1.925 0 0 1 .346 3.818l-.346.031h-3.875l2.944 7.245 26.1-8.983-1.21-3.283a3.85 3.85 0 0 1 2.234-4.927l.444-.14zm4.436 41.032-4.61-12.516a13.472 13.472 0 0 0-7.055 11.85c0 7.441 6.033 13.474 13.475 13.474 7.442 0 13.475-6.033 13.475-13.475 0-7.442-6.033-13.475-13.475-13.475-.963 0-1.902.102-2.809.294l4.612 12.517a1.926 1.926 0 0 1-3.464 1.645zm-38.722-2.59h4.945l-5.548-13.66-3.667 4.074a17.254 17.254 0 0 1 4.27 9.585zm-6.865-6.702a13.411 13.411 0 0 1 2.986 6.701h-9.017zm-2.86-2.577-8.923 9.915-.197.257c-.797 1.236.073 2.956 1.628 2.956h13.338c-.934 6.53-6.55 11.55-13.339 11.55-7.442 0-13.475-6.034-13.475-13.476 0-7.442 6.033-13.475 13.475-13.475 2.773 0 5.35.838 7.492 2.273zm34.158-14.388-21.883 7.531 5.755 14.164z"
    clip-rule="evenodd" />
  <path fill="#115e59"
    d="m174.275 125.35.485-.122zm-2.335-1.4.122.484zm1.263 3.62.164.472.021-.007.021-.009zm-.328.114.121.485.022-.005.021-.008zm-5.618 1.406-.122-.485-.54.135.193.522zm1.832 4.973-.469.172.008.023.01.021zm.13.35-.485.126.006.024.008.022zm4.817 13.078-.47.173.155.42.434-.108zm-3.613 1.332.224.446.4-.2-.155-.419zm-3.659-9.932.47-.173-.32-.867-.55.742zm-19.757 26.577.373.333.015-.016.013-.018zm-.23.26.307.393.035-.027.03-.034zm-.267.207.234.442.04-.02.034-.028zm-.294.156.156.475.041-.013.038-.02zm-.312.102.073.495.042-.006.04-.013zm-.325.048v.5h.037l.036-.005zm-7.925 0v-.5h-.448l-.049.445zm-7.13-16.01-.292.405.364.261.3-.333zm4.917-5.465.371.334.21-.233-.118-.289zm-3.787-9.324.464-.188-.127-.312h-.337zm-3.864-3.819-.044-.498-.023.002-.022.004zm.346-.03v-.5h-.022l-.022.001zm4.727 0v.5h.022zm.172 0-.022.5h.022zm6.997 3.818.045.498.023-.002.022-.004zm-.346.031v.5h.023l.022-.002zm-3.875 0v-.5h-.743l.28.69zm2.944 7.245-.463.188.178.438.448-.154zm26.1-8.983.162.473.483-.166-.177-.479zm-1.21-3.283.468-.173zm.208-3.13-.442-.235zm2.026-1.797-.15-.477-.014.005-.015.005zm.444-.14-.12-.485-.016.004-.014.005zm5.442 27.112.47-.173-.2-.542-.508.275zm4.611 12.516-.469.173.008.021.01.02zm-.999-13.848-.103-.489-.565.12.2.541zm4.612 12.517-.469.173zm-1.14 2.472-.174-.469zm-2.324-.827-.452.214.01.02.011.02zm-33.926-2.905v.5h.743l-.28-.688zm-4.945 0-.497.055.05.445h.447zm-.603-13.66.464-.188-.3-.74-.535.594zm-3.667 4.075-.37-.335-.3.333.297.334zm.391 9.585v.5h.577l-.082-.57zm-2.986-6.7.384-.322-.37-.443-.386.43zm-6.03 6.7-.372-.335-.75.835h1.121zm-5.753.637-.37-.334-.015.014-.012.016zm8.922-9.915.372.335.386-.429-.479-.32zm-9.119 10.172-.396-.304-.013.016-.01.017zm1.628 2.956v-.5zm13.338 0 .495.071.082-.57h-.577zm6.43-19.985-.164-.473-.499.172.198.49zm21.882-7.53.401.298.964-1.297-1.528.525zM145.96 160.42l-.463.188.335.823.53-.713zm28.801-35.192a2.425 2.425 0 0 0-2.94-1.764l.242.97a1.425 1.425 0 0 1 1.728 1.037zm-1.35 2.798a2.426 2.426 0 0 0 1.35-2.798l-.97.243a1.425 1.425 0 0 1-.793 1.643zm-.37.13.327-.114-.328-.944-.329.114zm-5.662 1.42 5.618-1.407-.243-.97-5.618 1.406zm2.18 4.314-1.832-4.973-.938.345 1.832 4.973zm.143.395a2.405 2.405 0 0 0-.162-.439l-.9.433c.04.084.072.171.095.26zm4.804 13.033-4.818-13.079-.939.346 4.818 13.08zm3.68-.827a17.88 17.88 0 0 0-4.269.514l.24.971a16.877 16.877 0 0 1 4.03-.485zm17.825 17.825c0-9.845-7.98-17.825-17.825-17.825v1c9.292 0 16.825 7.533 16.825 16.825zm-17.825 17.825c9.844 0 17.825-7.98 17.825-17.825h-1c0 9.292-7.533 16.825-16.825 16.825zm-17.825-17.825c0 9.844 7.98 17.825 17.825 17.825v-1c-9.292 0-16.825-7.533-16.825-16.825zm9.84-15.94c-5.835 2.928-9.84 8.966-9.84 15.94h1c0-6.582 3.78-12.282 9.287-15.047zm-3.905-9.312 3.66 9.931.937-.345-3.658-9.932zm-18.887 26.703 19.758-26.578-.803-.596-19.757 26.577zm-.259.293.231-.259-.746-.666-.23.26zm-.33.27.265-.209-.616-.787-.266.208zm-.368.203.293-.156-.469-.883-.293.156zm-.392.136.313-.103-.31-.95-.314.102zm-.407.067.325-.048-.146-.989-.325.048zm-7.998.005h7.925v-1h-7.925zm-17.219 15.4c9.175 0 16.731-6.932 17.716-15.845l-.994-.11c-.93 8.412-8.062 14.955-16.722 14.955zm-17.825-17.825c0 9.844 7.98 17.825 17.825 17.825v-1c-9.292 0-16.825-7.533-16.825-16.825zm17.825-17.825c-9.845 0-17.825 7.98-17.825 17.825h1c0-9.292 7.533-16.825 16.825-16.825zm10.38 3.332a17.748 17.748 0 0 0-10.38-3.332v1c3.656 0 7.038 1.165 9.797 3.145zm4.254-5.392-4.917 5.464.743.67 4.917-5.465zm-3.878-8.8 3.786 9.323.927-.376-3.786-9.324zm.463-.689h-3.518v1h3.518zm-3.518 0a1.425 1.425 0 0 1-1.425-1.425h-1a2.425 2.425 0 0 0 2.425 2.425zm-1.425-1.425c0-.699.504-1.28 1.17-1.402l-.18-.984a2.427 2.427 0 0 0-1.99 2.386zm1.124-1.396.346-.03-.089-.997-.346.031zm.301-.029h4.727v-1h-4.727zm4.922-.999a2.641 2.641 0 0 0-.218 0l.045 1a.911.911 0 0 1 .128 0zm-.023 1h6.651v-1h-6.65zm6.651 0c.787 0 1.425.637 1.425 1.424h1a2.425 2.425 0 0 0-2.425-2.425zm1.425 1.424c0 .7-.503 1.282-1.168 1.402l.18.984a2.425 2.425 0 0 0 1.988-2.386zm-1.123 1.396-.346.031.09.996.345-.03zm-.302.03h-3.875v1h3.875zm-.467 7.555-2.945-7.244-.927.377 2.945 7.244zm25.472-9.266-26.098 8.982.325.945 26.1-8.982zm-1.516-2.638 1.21 3.283.938-.345-1.21-3.284zm.236-3.538a4.353 4.353 0 0 0-.236 3.538l.938-.346a3.355 3.355 0 0 1 .182-2.725zm2.29-2.029a4.36 4.36 0 0 0-2.29 2.03l.884.466a3.355 3.355 0 0 1 1.763-1.562zm.472-.149-.444.14.301.953.443-.14zm5.646-1.414-5.617 1.405.242.971 5.618-1.406zm-.523 29.175 4.611 12.516.938-.346-4.61-12.516zm-6.085 11.676c0-4.926 2.746-9.212 6.793-11.41l-.477-.879c-4.356 2.366-7.316 6.982-7.316 12.29zm12.975 12.975c-7.165 0-12.975-5.809-12.975-12.975h-1c0 7.72 6.257 13.975 13.975 13.975zm12.975-12.975c0 7.166-5.809 12.975-12.975 12.975v1c7.72 0 13.975-6.256 13.975-13.975zm-12.975-12.975c7.166 0 12.975 5.81 12.975 12.975h1c0-7.718-6.256-13.975-13.975-13.975zm-2.705.283a13.024 13.024 0 0 1 2.705-.283v-1c-.998 0-1.972.105-2.912.305zm4.977 11.855-4.61-12.517-.94.345 4.612 12.518zm-1.437 3.114a2.426 2.426 0 0 0 1.437-3.114l-.938.346a1.425 1.425 0 0 1-.845 1.83zm-2.927-1.042a2.425 2.425 0 0 0 2.927 1.042l-.346-.938a1.425 1.425 0 0 1-1.719-.612zm-.17-.354.15.314.903-.428-.149-.314zm-33.325-3.305h-4.945v1h4.945zm-6.01-12.972 5.547 13.66.926-.376-5.547-13.66zm-2.833 4.221 3.667-4.074-.743-.669-3.667 4.074zm4.395 9.196a17.75 17.75 0 0 0-4.393-9.862l-.747.664a16.764 16.764 0 0 1 4.146 9.308zm-3.88-.016a13.92 13.92 0 0 0-3.098-6.95l-.768.64a12.91 12.91 0 0 1 2.875 6.452zm-9.513.571h9.017v-1h-9.017zm5.66-7.536-6.03 6.701.742.67 6.031-6.702zm-11.04 8.008 8.922-9.915-.743-.669-8.922 9.915zm-.172.226.197-.257-.794-.608-.196.257zm1.231 2.152c-1.148 0-1.797-1.27-1.207-2.185l-.84-.542c-1.006 1.56.084 3.727 2.047 3.727zm13.338 0h-13.338v1h13.338zm-13.339 12.55c7.041 0 12.865-5.206 13.834-11.979l-.99-.142c-.9 6.287-6.308 11.12-12.844 11.12zm-13.975-13.976c0 7.72 6.257 13.975 13.975 13.975v-1c-7.165 0-12.975-5.809-12.975-12.975zm13.975-13.975c-7.718 0-13.975 6.257-13.975 13.975h1c0-7.165 5.81-12.975 12.975-12.975zm7.771 2.358a13.915 13.915 0 0 0-7.77-2.358v1c2.67 0 5.15.807 7.213 2.19zm12.16-5.969 21.883-7.53-.326-.947-21.883 7.531zm6.056 13.503-5.756-14.164-.927.376 5.756 14.164zm15.263-21.805-16.128 21.695.803.596 16.127-21.694z" />
  <defs>
    <linearGradient id="a" x1="147.25" x2="147.25" y1="3" y2="377"
      gradientTransform="translate(-.687 -.308)" gradientUnits="userSpaceOnUse">
      <stop stop-color="#F9E6A9" />
      <stop offset="1" stop-color="#F0BD15" />
    </linearGradient>
  </defs>
</svg>
