<svg xmlns="http://www.w3.org/2000/svg" width="657" height="163" fill="none"><mask id="a" fill="#fff"><path fill-rule="evenodd" d="M3.499 23.193A6 6 0 0 0 0 28.647v123.305c0 4.368 4.518 7.273 8.492 5.459l40.197-18.352a6 6 0 0 1 5.296.153l39.157 20.698a6.001 6.001 0 0 0 5.375.117l43.361-20.568a6 6 0 0 0 3.428-5.42l.025-123.237c.001-4.406-4.589-7.31-8.57-5.423l-38.25 18.134a6 6 0 0 1-5.365-.113L53.82 2.691a6 6 0 0 0-5.297-.145L3.5 23.193Zm39.777 60.834 47.668-31.335c3.007-1.977 6.892.713 6.1 4.223L84.45 112.691c-.85 3.765-6.012 4.262-7.564.728l-6.683-15.22a10 10 0 0 0-8.624-5.965l-16.32-.87c-3.856-.206-5.211-5.216-1.984-7.337Z" clip-rule="evenodd"/></mask><path fill="#FCD34D" fill-rule="evenodd" d="M3.499 23.193A6 6 0 0 0 0 28.647v123.305c0 4.368 4.518 7.273 8.492 5.459l40.197-18.352a6 6 0 0 1 5.296.153l39.157 20.698a6.001 6.001 0 0 0 5.375.117l43.361-20.568a6 6 0 0 0 3.428-5.42l.025-123.237c.001-4.406-4.589-7.31-8.57-5.423l-38.25 18.134a6 6 0 0 1-5.365-.113L53.82 2.691a6 6 0 0 0-5.297-.145L3.5 23.193Zm39.777 60.834 47.668-31.335c3.007-1.977 6.892.713 6.1 4.223L84.45 112.691c-.85 3.765-6.012 4.262-7.564.728l-6.683-15.22a10 10 0 0 0-8.624-5.965l-16.32-.87c-3.856-.206-5.211-5.216-1.984-7.337Z" clip-rule="evenodd"/><path fill="#FCD34D" d="m3.499 23.193-.417-.909.417.91Zm4.993 134.218-.415-.91.415.91Zm40.197-18.352.415.909-.415-.909Zm5.296.153-.468.884.468-.884Zm39.157 20.698.467-.884-.467.884Zm5.375.117-.428-.904.428.904Zm43.361-20.568.428.903-.428-.903Zm3.428-5.42h-1 1Zm.025-123.237h1-1Zm-8.57-5.423-.428-.903.428.903Zm-38.25 18.134.43.903-.43-.903Zm-5.365-.113.466-.885-.466.885ZM53.82 2.691l-.466.885.466-.885Zm-5.297-.145-.417-.909.417.91Zm42.421 50.146.55.836-.55-.836ZM43.276 84.027l-.55-.836.55.836Zm53.767-27.112.976.22-.976-.22Zm-12.592 55.776.976.221-.976-.221Zm-7.564.728-.916.402.916-.402Zm-6.683-15.22.915-.402-.915.402Zm-8.624-5.965-.053.998.053-.998Zm-16.32-.87-.053.998.053-.998ZM1 28.647a5 5 0 0 1 2.916-4.545l-.834-1.818A7 7 0 0 0-1 28.647h2Zm0 123.305V28.647h-2v123.305h2Zm7.077 4.549C4.765 158.013 1 155.592 1 151.952h-2c0 5.096 5.271 8.485 9.907 6.368l-.83-1.819Zm40.197-18.352L8.077 156.501l.83 1.819 40.197-18.352-.83-1.819Zm6.178.179a7 7 0 0 0-6.178-.179l.83 1.819a5 5 0 0 1 4.413.128l.935-1.768Zm39.157 20.698-39.157-20.698-.935 1.768 39.158 20.698.934-1.768Zm4.48.097a5 5 0 0 1-4.48-.097l-.934 1.768a7 7 0 0 0 6.271.136l-.857-1.807Zm43.36-20.568-43.36 20.568.857 1.807 43.36-20.568-.857-1.807Zm2.857-4.516a4.997 4.997 0 0 1-2.857 4.516l.857 1.807a6.998 6.998 0 0 0 4-6.323h-2Zm.025-123.237-.025 123.237h2l.025-123.237h-2Zm-7.142-4.52c3.318-1.572 7.143.848 7.142 4.52h2c.001-5.14-5.353-8.528-9.998-6.326l.856 1.807ZM98.94 24.417 137.19 6.283l-.856-1.807-38.25 18.133.857 1.807Zm-6.26-.131a7 7 0 0 0 6.26.131l-.857-1.807a5 5 0 0 1-4.471-.094l-.932 1.77ZM53.354 3.575l39.326 20.71.932-1.77L54.286 1.806l-.932 1.77Zm-4.414-.12a5 5 0 0 1 4.414.12l.932-1.769a7 7 0 0 0-6.18-.169l.834 1.818ZM3.916 24.102 48.94 3.455l-.834-1.818L3.082 22.284l.834 1.818Zm86.479 27.754L42.727 83.191l1.098 1.671 47.668-31.334-1.098-1.672Zm7.624 5.28c.99-4.388-3.865-7.75-7.624-5.28l1.099 1.672c2.255-1.483 5.168.534 4.574 3.167l1.95.44Zm-12.592 55.776 12.592-55.776-1.951-.44-12.592 55.775 1.95.441Zm-9.456.909c1.94 4.417 8.393 3.797 9.456-.909l-1.951-.441c-.638 2.824-4.51 3.196-5.673.546l-1.832.804Zm-6.683-15.22 6.683 15.22 1.832-.804-6.684-15.22-1.83.804Zm-7.761-5.369a9 9 0 0 1 7.761 5.369l1.831-.804a11 11 0 0 0-9.486-6.562l-.106 1.997Zm-16.32-.87 16.32.87.106-1.997-16.32-.87-.106 1.997Zm-2.48-9.17c-4.034 2.65-2.34 8.913 2.48 9.17l.106-1.997c-2.892-.154-3.908-3.912-1.488-5.503l-1.098-1.67Z" mask="url(#a)"/><path fill="#000" d="M268.875 44.61h-25.313v83.202c0 4.792-1.067 8.36-3.203 10.704-2.135 2.291-4.895 3.437-8.281 3.437-3.437 0-6.25-1.172-8.437-3.515-2.136-2.344-3.203-5.886-3.203-10.626V44.609h-25.313c-3.958 0-6.901-.859-8.828-2.578-1.927-1.77-2.891-4.088-2.891-6.953 0-2.969.99-5.312 2.969-7.031 2.031-1.719 4.948-2.578 8.75-2.578h73.75c4.01 0 6.979.885 8.906 2.656 1.979 1.77 2.969 4.089 2.969 6.953 0 2.865-.99 5.182-2.969 6.953-1.979 1.719-4.948 2.578-8.906 2.578Zm26.563 83.202V37.578c0-4.687 1.067-8.203 3.203-10.547 2.135-2.343 4.895-3.515 8.281-3.515 3.489 0 6.302 1.172 8.437 3.515 2.188 2.292 3.282 5.808 3.282 10.547v90.234c0 4.74-1.094 8.282-3.282 10.626-2.135 2.343-4.948 3.515-8.437 3.515-3.333 0-6.094-1.172-8.281-3.515-2.136-2.396-3.203-5.938-3.203-10.626Zm71.953-90.234v83.36h47.031c3.75 0 6.614.911 8.594 2.734 2.031 1.823 3.046 4.114 3.046 6.875 0 2.812-.989 5.104-2.968 6.875-1.979 1.719-4.87 2.578-8.672 2.578h-56.016c-5.052 0-8.698-1.12-10.937-3.359-2.188-2.24-3.281-5.86-3.281-10.86V37.578c0-4.687 1.041-8.203 3.124-10.547 2.136-2.343 4.922-3.515 8.36-3.515 3.489 0 6.302 1.172 8.437 3.515 2.188 2.292 3.282 5.808 3.282 10.547Zm88.359-12.11h30.234c7.865 0 14.61.73 20.235 2.188 5.625 1.459 10.729 4.193 15.312 8.203 11.927 10.209 17.891 25.73 17.891 46.563 0 6.875-.599 13.15-1.797 18.828-1.198 5.677-3.047 10.807-5.547 15.391-2.5 4.531-5.703 8.593-9.609 12.187-3.073 2.761-6.433 4.974-10.078 6.641-3.646 1.666-7.579 2.838-11.797 3.515-4.167.677-8.88 1.016-14.141 1.016h-30.234c-4.219 0-7.396-.625-9.531-1.875-2.136-1.302-3.542-3.099-4.219-5.391-.625-2.343-.938-5.364-.938-9.062V39.688c0-5 1.12-8.62 3.36-10.86 2.239-2.24 5.859-3.36 10.859-3.36Zm8.984 18.36v77.734h17.578c3.855 0 6.876-.104 9.063-.312 2.187-.208 4.453-.729 6.797-1.562 2.344-.834 4.375-2.006 6.094-3.516 7.76-6.563 11.64-17.865 11.64-33.906 0-11.303-1.718-19.766-5.156-25.391-3.385-5.625-7.578-9.193-12.578-10.703-5-1.563-11.042-2.344-18.125-2.344h-15.313ZM627 127.031l-5.469-14.375h-46.562l-5.469 14.688c-2.135 5.729-3.958 9.609-5.469 11.64-1.51 1.98-3.984 2.969-7.422 2.969-2.916 0-5.494-1.068-7.734-3.203s-3.359-4.557-3.359-7.266c0-1.562.26-3.177.781-4.843.521-1.667 1.38-3.985 2.578-6.953l29.297-74.376a2352.56 2352.56 0 0 0 2.969-7.656c1.198-3.02 2.448-5.52 3.75-7.5 1.354-1.979 3.099-3.567 5.234-4.765 2.187-1.25 4.87-1.875 8.047-1.875 3.229 0 5.911.625 8.047 1.875 2.187 1.198 3.932 2.76 5.234 4.687a30.015 30.015 0 0 1 3.359 6.25c.938 2.188 2.11 5.13 3.516 8.828l29.922 73.906c2.344 5.626 3.516 9.714 3.516 12.266 0 2.656-1.12 5.104-3.36 7.344-2.187 2.187-4.844 3.281-7.968 3.281-1.823 0-3.386-.338-4.688-1.015a9.396 9.396 0 0 1-3.281-2.579c-.886-1.145-1.849-2.864-2.891-5.156a778.316 778.316 0 0 1-2.578-6.172Zm-45.938-31.797h34.219L598.016 47.97l-16.954 47.265Z"/></svg>