<svg xmlns="http://www.w3.org/2000/svg" width="657" height="163" fill="none"><mask id="a" fill="#fff"><path fill-rule="evenodd" d="M3.5 24.174A6 6 0 0 0 0 29.628V152.81c0 4.367 4.517 7.271 8.49 5.459l40.2-18.337a6.002 6.002 0 0 1 5.293.153l39.161 20.681a6 6 0 0 0 5.371.116l43.361-20.549a5.999 5.999 0 0 0 3.43-5.42l.025-123.114c.001-4.405-4.587-7.309-8.568-5.423L98.51 24.494a6 6 0 0 1-5.362-.112L53.818 3.69a6 6 0 0 0-5.293-.145L3.501 24.174Zm39.781 60.775 47.661-31.301c3.009-1.976 6.894.711 6.1 4.22l-12.59 55.716c-.85 3.764-6.014 4.261-7.567.729l-6.681-15.201a10 10 0 0 0-8.624-5.96l-16.316-.87c-3.858-.205-5.212-5.213-1.983-7.333Z" clip-rule="evenodd"/></mask><path fill="#FCD34D" fill-rule="evenodd" d="M3.5 24.174A6 6 0 0 0 0 29.628V152.81c0 4.367 4.517 7.271 8.49 5.459l40.2-18.337a6.002 6.002 0 0 1 5.293.153l39.161 20.681a6 6 0 0 0 5.371.116l43.361-20.549a5.999 5.999 0 0 0 3.43-5.42l.025-123.114c.001-4.405-4.587-7.309-8.568-5.423L98.51 24.494a6 6 0 0 1-5.362-.112L53.818 3.69a6 6 0 0 0-5.293-.145L3.501 24.174Zm39.781 60.775 47.661-31.301c3.009-1.976 6.894.711 6.1 4.22l-12.59 55.716c-.85 3.764-6.014 4.261-7.567.729l-6.681-15.201a10 10 0 0 0-8.624-5.96l-16.316-.87c-3.858-.205-5.212-5.213-1.983-7.333Z" clip-rule="evenodd"/><path fill="#FCD34D" d="m3.5 24.174.417.909-.416-.91Zm4.99 134.095-.415-.91.415.91Zm40.2-18.337.416.91-.415-.91Zm5.293.153-.467.885.467-.885Zm39.161 20.681-.467.884.467-.884Zm5.371.116.429.904-.429-.904Zm43.361-20.549.428.904-.428-.904Zm3.43-5.42-1-.001 1 .001Zm.025-123.114h1-1Zm-8.568-5.423-.428-.904.428.904ZM98.51 24.494l-.428-.903.428.903Zm-5.362-.112.465-.885-.465.885ZM53.818 3.69l.465-.885-.465.885Zm-5.293-.145-.416-.909.416.91Zm42.417 50.103.549.836-.549-.836Zm-47.66 31.3-.55-.835.55.836Zm53.76-27.08.976.22-.975-.22Zm-12.59 55.716-.975-.22.976.22Zm-7.567.729-.915.403.915-.403Zm-6.681-15.201-.916.402.916-.402Zm-8.624-5.96.053-1-.053 1Zm-16.316-.87.053-.998-.053.998ZM1 29.628a5 5 0 0 1 2.917-4.545l-.833-1.819A7 7 0 0 0-1 29.628h2ZM1 152.81V29.628h-2V152.81h2Zm7.075 4.549C4.764 158.869 1 156.449 1 152.81h-2c0 5.095 5.27 8.483 9.905 6.368l-.83-1.819Zm40.2-18.337-40.2 18.337.83 1.819 40.2-18.336-.83-1.82Zm6.175.179a7.003 7.003 0 0 0-6.174-.179l.83 1.82a4.997 4.997 0 0 1 4.41.128l.934-1.769Zm39.161 20.681L54.45 139.201l-.934 1.769 39.161 20.68.934-1.768Zm4.476.097a5.005 5.005 0 0 1-4.476-.097l-.934 1.768a7 7 0 0 0 6.267.136l-.857-1.807Zm43.36-20.549-43.36 20.549.857 1.807 43.36-20.549-.857-1.807Zm2.859-4.518a5 5 0 0 1-2.859 4.518l.857 1.807a6.998 6.998 0 0 0 4.002-6.324l-2-.001Zm.025-123.113-.025 123.113 2 .001.025-123.113h-2Zm-7.14-4.52c3.318-1.57 7.141.85 7.14 4.52h2c.001-5.139-5.351-8.527-9.996-6.327l.856 1.808ZM98.938 25.4l38.253-18.12-.856-1.807-38.253 18.119.856 1.807Zm-6.256-.132a7 7 0 0 0 6.256.131l-.856-1.807a5 5 0 0 1-4.469-.094l-.93 1.77ZM53.352 4.575l39.33 20.692.931-1.77-39.33-20.692-.93 1.77Zm-4.41-.12a5 5 0 0 1 4.41.12l.931-1.77a7 7 0 0 0-6.174-.169l.833 1.818ZM3.917 25.082 48.942 4.454l-.833-1.818L3.084 23.264l.833 1.819Zm86.476 27.729-47.66 31.3 1.097 1.672 47.661-31.3-1.098-1.672Zm7.625 5.277c.992-4.39-3.867-7.745-7.625-5.277l1.098 1.672c2.259-1.484 5.17.535 4.576 3.164l1.951.44Zm-12.59 55.715 12.59-55.715-1.95-.441-12.59 55.716 1.95.44Zm-9.458.912c1.94 4.415 8.395 3.792 9.458-.912l-1.95-.44c-.639 2.823-4.513 3.195-5.677.547l-1.831.805Zm-6.682-15.202 6.682 15.202 1.83-.805-6.68-15.202-1.832.805Zm-7.762-5.364a9 9 0 0 1 7.762 5.364l1.831-.805a11 11 0 0 0-9.486-6.556l-.107 1.997Zm-16.315-.869 16.315.869.107-1.997-16.316-.87-.106 1.998Zm-2.479-9.168c-4.036 2.65-2.342 8.911 2.48 9.168l.105-1.997c-2.894-.154-3.908-3.91-1.487-5.5l-1.098-1.671Z" mask="url(#a)"/><path fill="#fff" d="M268.875 44.61h-25.313v83.202c0 4.792-1.067 8.36-3.203 10.704-2.135 2.291-4.895 3.437-8.281 3.437-3.437 0-6.25-1.172-8.437-3.515-2.136-2.344-3.203-5.886-3.203-10.626V44.609h-25.313c-3.958 0-6.901-.859-8.828-2.578-1.927-1.77-2.891-4.088-2.891-6.953 0-2.969.99-5.312 2.969-7.031 2.031-1.719 4.948-2.578 8.75-2.578h73.75c4.01 0 6.979.885 8.906 2.656 1.979 1.77 2.969 4.089 2.969 6.953 0 2.865-.99 5.182-2.969 6.953-1.979 1.719-4.948 2.578-8.906 2.578Zm26.563 83.202V37.578c0-4.687 1.067-8.203 3.203-10.547 2.135-2.343 4.895-3.515 8.281-3.515 3.489 0 6.302 1.172 8.437 3.515 2.188 2.292 3.282 5.808 3.282 10.547v90.234c0 4.74-1.094 8.282-3.282 10.626-2.135 2.343-4.948 3.515-8.437 3.515-3.333 0-6.094-1.172-8.281-3.515-2.136-2.396-3.203-5.938-3.203-10.626Zm71.953-90.234v83.36h47.031c3.75 0 6.614.911 8.594 2.734 2.031 1.823 3.046 4.114 3.046 6.875 0 2.812-.989 5.104-2.968 6.875-1.979 1.719-4.87 2.578-8.672 2.578h-56.016c-5.052 0-8.698-1.12-10.937-3.359-2.188-2.24-3.281-5.86-3.281-10.86V37.578c0-4.687 1.041-8.203 3.124-10.547 2.136-2.343 4.922-3.515 8.36-3.515 3.489 0 6.302 1.172 8.437 3.515 2.188 2.292 3.282 5.808 3.282 10.547Zm88.359-12.11h30.234c7.865 0 14.61.73 20.235 2.188 5.625 1.459 10.729 4.193 15.312 8.203 11.927 10.209 17.891 25.73 17.891 46.563 0 6.875-.599 13.15-1.797 18.828-1.198 5.677-3.047 10.807-5.547 15.391-2.5 4.531-5.703 8.593-9.609 12.187-3.073 2.761-6.433 4.974-10.078 6.641-3.646 1.666-7.579 2.838-11.797 3.515-4.167.677-8.88 1.016-14.141 1.016h-30.234c-4.219 0-7.396-.625-9.531-1.875-2.136-1.302-3.542-3.099-4.219-5.391-.625-2.343-.938-5.364-.938-9.062V39.688c0-5 1.12-8.62 3.36-10.86 2.239-2.24 5.859-3.36 10.859-3.36Zm8.984 18.36v77.734h17.578c3.855 0 6.876-.104 9.063-.312 2.187-.208 4.453-.729 6.797-1.562 2.344-.834 4.375-2.006 6.094-3.516 7.76-6.563 11.64-17.865 11.64-33.906 0-11.303-1.718-19.766-5.156-25.391-3.385-5.625-7.578-9.193-12.578-10.703-5-1.563-11.042-2.344-18.125-2.344h-15.313ZM627 127.031l-5.469-14.375h-46.562l-5.469 14.688c-2.135 5.729-3.958 9.609-5.469 11.64-1.51 1.98-3.984 2.969-7.422 2.969-2.916 0-5.494-1.068-7.734-3.203s-3.359-4.557-3.359-7.266c0-1.562.26-3.177.781-4.843.521-1.667 1.38-3.985 2.578-6.953l29.297-74.376a2352.56 2352.56 0 0 0 2.969-7.656c1.198-3.02 2.448-5.52 3.75-7.5 1.354-1.979 3.099-3.567 5.234-4.765 2.187-1.25 4.87-1.875 8.047-1.875 3.229 0 5.911.625 8.047 1.875 2.187 1.198 3.932 2.76 5.234 4.687a30.015 30.015 0 0 1 3.359 6.25c.938 2.188 2.11 5.13 3.516 8.828l29.922 73.906c2.344 5.626 3.516 9.714 3.516 12.266 0 2.656-1.12 5.104-3.36 7.344-2.187 2.187-4.844 3.281-7.968 3.281-1.823 0-3.386-.338-4.688-1.015a9.396 9.396 0 0 1-3.281-2.579c-.886-1.145-1.849-2.864-2.891-5.156a778.316 778.316 0 0 1-2.578-6.172Zm-45.938-31.797h34.219L598.016 47.97l-16.954 47.265Z"/></svg>