<svg xmlns="http://www.w3.org/2000/svg" fill="none" viewBox="0 0 624 160">
    <path fill="#fabe28" stroke="#fabe28" stroke-linejoin="round" d="M145.653 8.925c-.25-3.83-4.31-6.27-7.84-4.6l-38.25 18.13-.35.15c-1.77.71-3.77.62-5.46-.28l-39.33-20.69-.29-.14a5.52 5.52 0 0 0-4.57 0l-45.02 20.65-.36.18c-1.75.96-2.85 2.8-2.85 4.82v123.3c0 4 4.14 6.67 7.78 5l40.2-18.35.35-.15c1.75-.68 3.72-.57 5.39.31l39.16 20.7.29.14c1.47.67 3.17.66 4.64-.04l43.36-20.57.35-.18c1.6-.91 2.64-2.55 2.78-4.39l.02-.4.02-123.24v-.37zm-45.19 47.32-12.54 55.52c-1.45 6.44-10.29 7.29-12.94 1.24l-4.95-11.27c-2.13-4.84-6.8-8.08-12.09-8.36l-11.95-.64c-6.6-.35-8.92-8.93-3.4-12.56l47.42-31.17c5.15-3.38 11.79 1.22 10.44 7.23z"/>
    <path fill="#212529" d="M263.662 45.77h-23.889v78.522q0 6.784-3.023 10.102-3.023 3.243-7.815 3.244-4.867 0-7.963-3.318-3.023-3.318-3.023-10.028V45.769H194.06q-5.604 0-8.331-2.433Q183 40.831 183 36.774q0-4.202 2.802-6.635 2.876-2.433 8.258-2.433h69.602q5.676 0 8.405 2.506 2.802 2.508 2.802 6.562 0 4.056-2.802 6.562-2.802 2.434-8.405 2.434m24.313 78.522V39.134q0-6.636 3.023-9.954 3.022-3.318 7.815-3.318 4.94 0 7.963 3.318 3.097 3.244 3.097 9.954v85.158q0 6.71-3.097 10.028-3.022 3.318-7.963 3.318-4.718 0-7.815-3.318-3.023-3.392-3.023-10.028m67.151-85.158v78.67h44.385q5.31 0 8.111 2.581 2.875 2.58 2.875 6.488 0 3.981-2.801 6.488-2.802 2.433-8.185 2.433h-52.864q-7.152 0-10.323-3.17-3.096-3.17-3.096-10.249V39.134q0-6.636 2.949-9.954 3.023-3.318 7.889-3.318 4.94 0 7.963 3.318 3.097 3.244 3.097 9.954m79.991-11.428h28.534q11.134 0 19.096 2.064 7.963 2.064 14.451 7.742 16.885 14.451 16.885 43.943 0 9.732-1.696 17.77-1.696 8.036-5.235 14.524-3.538 6.414-9.069 11.502-4.35 3.908-9.511 6.267t-11.133 3.318q-5.899.958-13.346.958H435.56q-5.973 0-8.995-1.769-3.024-1.844-3.982-5.087-.885-3.318-.885-8.553v-79.26q0-7.079 3.171-10.249t10.248-3.17m8.479 17.326v73.362h16.59q5.456 0 8.552-.295 3.097-.295 6.415-1.474t5.751-3.318q10.986-9.29 10.986-32 0-15.999-4.866-23.962-4.792-7.962-11.871-10.1-7.079-2.213-17.105-2.213zm152.006 78.523-5.161-13.566h-43.943l-5.162 13.861q-3.022 8.11-5.161 10.986-2.138 2.802-7.004 2.802-4.13 0-7.299-3.023-3.171-3.023-3.171-6.857 0-2.213.738-4.571.736-2.36 2.433-6.562l27.649-70.192q1.18-3.023 2.801-7.225 1.697-4.276 3.539-7.079a14.5 14.5 0 0 1 4.94-4.497q3.097-1.77 7.595-1.77 4.57 0 7.594 1.77 3.096 1.695 4.94 4.424a28.3 28.3 0 0 1 3.17 5.898q1.327 3.097 3.318 8.332l28.239 69.749q3.318 7.963 3.318 11.575 0 3.76-3.171 6.931-3.096 3.096-7.52 3.097-2.581 0-4.424-.959a8.9 8.9 0 0 1-3.097-2.433q-1.253-1.621-2.728-4.866a715 715 0 0 1-2.433-5.825m-43.353-30.008h32.294L568.248 48.94z"/>
</svg>
