<svg viewBox="0 0 2126 567" xmlns="http://www.w3.org/2000/svg" fill-rule="evenodd" clip-rule="evenodd" stroke-linejoin="round" stroke-miterlimit="2" style="height: 45px;"><path d="M551.3 303.004v-32.416l23.725-5.078V110.371l-23.724-5.057V72.73h80.18l92.363 147.395h.944V110.37l-30.207-5.057V72.73h103.277v32.585l-23.877 5.057v192.633h-54.722l-94.097-144.242h-.953V265.51l30.368 5.078v32.416H551.3zm415.203 3.322c-19.826 0-37.088-3.195-51.796-9.564-14.707-6.39-26.069-15.742-34.076-28.078-8.016-12.336-12.02-27.422-12.02-45.238V110.37l-23.724-5.057V72.73h103.115v32.585l-23.887 5.057v113.075c0 9.289 1.64 16.948 4.909 23.02 3.26 6.052 8.035 10.56 14.307 13.521 6.272 2.942 13.888 4.423 22.857 4.423 9.274 0 17.052-1.481 23.324-4.423 6.272-2.962 11.019-7.469 14.231-13.52 3.222-6.073 4.823-13.732 4.823-23.021V110.37l-23.715-5.057V72.73h103.105v32.585l-23.877 5.057v113.075c0 17.498-4.108 32.458-12.334 44.836-8.226 12.399-19.635 21.836-34.238 28.31-14.603 6.497-31.607 9.734-51.004 9.734zm172.438-3.322v-32.416l24.201-5.86V111.323l-24.2-6.01V72.73h107.86c20.77 0 39.166 4.825 55.189 14.473 16.023 9.649 28.576 22.979 37.64 40.012 9.065 17.033 13.603 36.669 13.603 58.907v3.64c0 22.259-4.538 41.894-13.602 58.906-9.065 17.033-21.618 30.342-37.641 39.949-16.023 9.585-34.42 14.388-55.189 14.388h-107.86zm79.705-42.064h25.306c11.705 0 21.504-2.963 29.415-8.866 7.912-5.903 13.888-14.198 17.948-24.904a25.364 56.304 0 006.091-37.41v-3.787c0-14.24-2.03-26.682-6.09-37.325-4.061-10.643-10.037-18.916-17.949-24.82-7.911-5.924-17.71-8.865-29.415-8.865h-25.306V260.94zm183.352 42.064v-32.416l16.137-2.37 68.629-195.489h60.097l68.8 195.49 16.128 2.37v32.415h-86.034v-32.416l15.022-2.856-6.958-24.99h-74.014l-6.634 24.99 15.022 2.856v32.416h-86.195zm89.512-99.173h50.452l-22.457-69.74-2.526-8.062h-.953l-2.688 8.866-21.828 68.936zm192.055 99.173v-32.416l23.877-5.078V110.371l-23.877-5.057V72.73h189.615v67.858h-41.902l-1.115-25.159h-67.208v53.3h78.284v42.382h-78.284v54.4l23.877 5.078v32.416h-103.267zm203.121 0v-32.416l16.128-2.37 68.638-195.489h60.098l68.79 195.49 16.137 2.37v32.415h-86.033v-32.416l15.022-2.856-6.958-24.99h-74.014l-6.644 24.99 15.022 2.856v32.416h-86.186zm89.513-99.173h50.442l-22.457-69.74-2.526-8.062h-.953l-2.688 8.866-21.818 68.936zm-1422.64 326.02v-6.412h19.33V363.54h-19.33v-6.39h69.382c12.182 0 22.476 1.756 30.902 5.269 8.426 3.512 14.822 8.696 19.216 15.53 4.384 6.856 6.586 15.34 6.586 25.455 0 9.648-2.392 17.858-7.177 24.608-4.785 6.77-11.467 11.912-20.045 15.425-8.579 3.512-18.568 5.268-29.95 5.268h-43.178v74.734h19.33v6.412H553.56zm118.137 0l-36.183-85.293h6.406l34.047 78.881h15.775v6.412h-20.045zm-92.4-87.536h43.054c17.481 0 30.33-3.724 38.546-11.15 8.226-7.448 12.344-16.695 12.344-27.761 0-12.886-4.213-22.746-12.64-29.602-8.416-6.834-20.969-10.262-37.659-10.262h-43.646v78.775zm155.233 87.409v-6.412h19.33V363.434h-19.33v-6.41h120.862v34.763h-6.405v-28.353h-88.721v73.063h74.728v6.41h-74.728v80.405h92.286V494.96h6.405v34.765H734.53zm167.901 0v-6.412h12.687l62.157-166.289h7.825l62.27 166.29h12.697v6.41h-36.65v-6.41h16.958l-16.957-45.196h-84.452l-16.842 45.195h16.957v6.412h-36.65zm38.909-57.997h79.704l-36.182-97.269-3.317-9.733h-.715l-3.203 9.733-36.287 97.269zm156.835 57.997v-6.412h19.33V363.434h-19.33v-6.41h45.19v6.41h-19.33v159.878h82.192V494.96h6.405v34.765h-114.457zm156.911 0v-6.412h19.34V363.434h-19.34v-6.41h45.2v6.41h-19.34v159.878h82.202V494.96h6.405v34.765h-114.467zm157.274 0v-6.412h12.696l62.147-166.289h7.826l62.27 166.29h12.697v6.41h-36.65v-6.41h16.957l-16.957-45.196h-84.451l-16.843 45.195h16.957v6.412h-36.65zm38.908-57.997h79.705l-36.173-97.269-3.327-9.733h-.715l-3.202 9.733-36.288 97.269zm156.835 57.997v-6.412h19.34V363.434h-19.34v-6.41h64.769c17.862 0 31.74 3.68 41.625 11.023 9.884 7.363 14.831 18.43 14.831 33.22 0 10.283-2.65 18.937-7.95 25.983-5.3 7.025-12.772 11.426-22.418 13.161a81.668 181.291 0 0119.454 7.406c5.776 3.999 10.342 8.971 13.697 14.96 3.365 5.966 5.043 12.42 5.043 19.381 0 15.108-4.88 26.809-14.65 35.103-9.761 8.315-22.677 12.463-38.728 12.463h-75.673zm25.746-6.412h49.927c14.555 0 26.022-3.597 34.4-10.79 8.378-7.195 12.572-17.245 12.572-30.131 0-7.025-1.801-13.415-5.395-19.15-3.603-5.733-8.817-10.304-15.66-13.71-6.835-3.386-15.08-5.1-24.726-5.1h-51.118v78.881zm0-85.27h41.386c15.737 0 27.604-3.069 35.592-9.205 7.978-6.115 11.972-15.467 11.972-28.036 0-12.335-4.204-21.646-12.63-27.95-8.416-6.285-20.855-9.417-37.297-9.417h-39.023v74.607zm220.735 94.178c-10.751 0-20.56-2.073-29.414-6.242-8.855-4.147-16.49-10.071-22.896-17.773-6.405-7.723-11.342-16.949-14.821-27.697a27.232 60.452 0 01-5.224-36.077v-2.116c0-13.288 1.725-25.306 5.157-36.076 3.44-10.749 8.369-19.974 14.774-27.697 6.405-7.702 14.012-13.627 22.828-17.774 8.817-4.168 18.606-6.242 29.358-6.242 10.676 0 20.436 2.074 29.3 6.242 8.856 4.147 16.5 10.072 22.944 17.774 6.453 7.723 11.41 16.948 14.888 27.697 3.48 10.77 5.224 22.788 5.224 36.076v2.116c0 13.288-1.745 25.328-5.224 36.119-3.479 10.812-8.397 20.038-14.764 27.697-6.368 7.68-13.974 13.584-22.839 17.731-8.854 4.169-18.615 6.242-29.29 6.242zm0-6.41c13.364 0 24.964-3.365 34.81-10.094 9.847-6.707 17.453-16.186 22.838-28.395 5.376-12.209 8.064-26.513 8.064-42.89v-2.37c0-16.292-2.707-30.51-8.13-42.699-5.414-12.166-13.068-21.624-22.953-28.332-9.884-6.728-21.503-10.092-34.867-10.092-13.287 0-24.83 3.364-34.638 10.092-9.799 6.708-17.415 16.166-22.829 28.332-5.414 12.188-8.13 26.407-8.13 42.7v2.37c0 16.376 2.716 30.68 8.13 42.889 5.414 12.209 13.05 21.688 22.896 28.395 9.836 6.729 21.446 10.093 34.81 10.093zm116.316 4.04v-6.41h19.33v-159.9h-19.33v-6.39h69.391c12.172 0 22.476 1.756 30.893 5.269 8.426 3.512 14.83 8.696 19.215 15.53 4.395 6.856 6.587 15.34 6.587 25.455 0 9.648-2.393 17.858-7.177 24.608-4.785 6.77-11.467 11.912-20.046 15.425-8.578 3.512-18.558 5.268-29.948 5.268h-43.18v74.734h19.34v6.412H1970.9zm118.136 0l-36.172-85.292h6.405l34.038 78.881h15.775v6.412h-20.046zm-92.4-87.535h43.055c17.48 0 30.33-3.724 38.556-11.15 8.225-7.448 12.334-16.695 12.334-27.761 0-12.886-4.213-22.746-12.63-29.602-8.426-6.834-20.98-10.262-37.66-10.262h-43.655v78.775z" fill="#231f20" fill-rule="nonzero"></path><path d="M286.173 51.296c118.732 11.398 211.693 111.541 211.693 233.221 0 12.467-.98 24.701-2.859 36.656l-276.744-23.452 67.91-246.425z" fill="#fabd24" fill-opacity=".9"></path><path d="M501.846 187.007c11.305 28.423 17.523 59.4 17.523 91.82 0 106.51-67.082 197.478-161.269 232.929L218.258 297.71l283.588-110.703zM218.258 297.71L92.087 452.044c-43.185-44.482-69.895-105.024-70.28-171.743l196.45 17.41zM62.792 142.047c44.503-67.456 120.98-112.011 207.796-112.011a249.53 249.53 0 0145.033 4.08L218.258 297.71 62.792 142.047z" fill="#fde6ac"></path><path d="M218.258 297.71L10.482 353.591C3.652 329.86-.003 304.759-.003 278.827c0-75.542 31.019-143.891 80.993-192.983L218.258 297.71zm205.274 204.298c-43.507 29.897-96.201 47.4-152.944 47.4-82.996 0-157.303-37.444-206.955-96.336L218.258 297.71l205.274 204.298z" fill="#fabd24"></path></svg>
