<svg xmlns="http://www.w3.org/2000/svg" width="49.436" height="5mm" viewBox="0 0 13.08 5">
    <path d="M94.407 162.96c0-.004.004-.007.008-.007.005 0 .007-.833.007-2.484s-.002-2.484-.007-2.484a.007.007 0 0 1-.008-.007c0-.005.251-.007.738-.007.486 0 .737.002.737.007a.007.007 0 0 1-.007.007c-.005 0-.008.833-.008 2.484s.003 2.484.008 2.484c.004 0 .007.003.007.007 0 .005-.25.007-.737.007s-.738-.002-.738-.007zm3.27 0c0-.004.002-.007.006-.007.005 0 .007-.833.007-2.484s-.002-2.484-.007-2.484a.007.007 0 0 1-.007-.007c0-.005.25-.007.738-.007.486 0 .737.002.737.007a.007.007 0 0 1-.007.007c-.005 0-.007.833-.007 2.484s.002 2.484.007 2.484c.004 0 .007.003.007.007 0 .005-.25.007-.737.007s-.738-.002-.738-.007zm3.268 0c0-.004.003-.007.007-.007.005 0 .007-.833.007-2.484s-.002-2.484-.007-2.484a.007.007 0 0 1-.007-.007c0-.005.25-.007.737-.007s.738.002.738.007a.007.007 0 0 1-.007.007c-.005 0-.007.833-.007 2.484s.002 2.484.007 2.484c.004 0 .007.003.007.007 0 .005-.251.007-.738.007-.486 0-.737-.002-.737-.007zm3.269 0c0-.004.003-.007.007-.007.005 0 .007-.833.007-2.484s-.002-2.484-.007-2.484a.007.007 0 0 1-.007-.007c0-.005.25-.007.737-.007s.737.002.737.007a.007.007 0 0 1-.007.007c-.005 0-.007.833-.007 2.484s.002 2.484.007 2.484c.004 0 .007.003.007.007 0 .005-.25.007-.737.007s-.737-.002-.737-.007z" style="fill:#ececec;stroke-width:.00726405" transform="translate(-93.508 -157.969)"/>
</svg>
