<?xml version="1.0" encoding="UTF-8" standalone="no"?>
<svg
   xmlns:dc="http://purl.org/dc/elements/1.1/"
   xmlns:cc="http://creativecommons.org/ns#"
   xmlns:rdf="http://www.w3.org/1999/02/22-rdf-syntax-ns#"
   xmlns:svg="http://www.w3.org/2000/svg"
   xmlns="http://www.w3.org/2000/svg"
   xmlns:sodipodi="http://sodipodi.sourceforge.net/DTD/sodipodi-0.dtd"
   xmlns:inkscape="http://www.inkscape.org/namespaces/inkscape"
   viewBox="0 0 32.000004 32.000004"
   height="32.000004"
   width="32.000004"
   xml:space="preserve"
   version="1.1"
   id="svg13355"
   sodipodi:docname="bus_stop.svg"
   inkscape:version="0.92.3 (2405546, 2018-03-11)"><sodipodi:namedview
     pagecolor="#ffffff"
     bordercolor="#666666"
     borderopacity="1"
     objecttolerance="10"
     gridtolerance="10"
     guidetolerance="10"
     inkscape:pageopacity="0"
     inkscape:pageshadow="2"
     inkscape:window-width="1920"
     inkscape:window-height="1053"
     id="namedview10"
     showgrid="false"
     inkscape:zoom="4.2746846"
     inkscape:cx="4.3248723"
     inkscape:cy="15.581804"
     inkscape:window-x="0"
     inkscape:window-y="27"
     inkscape:window-maximized="1"
     inkscape:current-layer="svg13355" /><metadata
     id="metadata13361"><rdf:RDF><cc:Work
         rdf:about=""><dc:format>image/svg+xml</dc:format><dc:type
           rdf:resource="http://purl.org/dc/dcmitype/StillImage" /><dc:title></dc:title></cc:Work></rdf:RDF></metadata><defs
     id="defs13359" /><g
     transform="matrix(0.04528268,0,0,-0.04528268,0,32.000002)"
     id="g13363"><g
       id="g13365"><path
         id="path13367"
         style="fill:#f0c900;fill-opacity:1;fill-rule:nonzero;stroke:none"
         d="m 0,353.324 c 0,194.84 158.508,353.348 353.348,353.348 194.836,0 353.324,-158.508 353.324,-353.348 C 706.672,158.508 548.184,0 353.348,0 158.508,0 0,158.508 0,353.324"
         inkscape:connector-curvature="0" /><path
         id="path13369"
         style="fill:#008754;fill-opacity:1;fill-rule:nonzero;stroke:none"
         d="m 353.344,689.66 c -185.746,0 -336.332,-150.566 -336.332,-336.332 0,-185.75 150.586,-336.336 336.332,-336.336 185.75,0 336.336,150.586 336.336,336.336 0,185.766 -150.586,336.332 -336.336,336.332 z m 0,-88.504 c 136.883,0 247.832,-110.949 247.832,-247.828 0,-136.863 -110.949,-247.812 -247.832,-247.812 -136.86,0 -247.828,110.949 -247.828,247.812 0,136.879 110.968,247.828 247.828,247.828 z"
         inkscape:connector-curvature="0" /><path
         id="path13371"
         style="fill:#008754;fill-opacity:1;fill-rule:nonzero;stroke:none"
         d="m 222.684,170.414 v 365.844 h 55.535 V 379.469 h 150.254 v 156.789 h 55.515 V 170.414 H 428.473 V 330.469 H 278.219 V 170.414"
         inkscape:connector-curvature="0" /></g></g></svg>