<?xml version="1.0" encoding="UTF-8" standalone="no"?>
<svg
   fill="none"
   viewBox="0 0 24 24"
   stroke-width="1.5"
   stroke="#65a30d"
   class="w-6 h-6"
   version="1.1"
   id="svg1800"
   sodipodi:docname="check.svg"
   inkscape:export-filename="check.png"
   inkscape:export-xdpi="182.85715"
   inkscape:export-ydpi="182.85715"
   inkscape:version="1.2.2 (b0a8486541, 2022-12-01)"
   xmlns:inkscape="http://www.inkscape.org/namespaces/inkscape"
   xmlns:sodipodi="http://sodipodi.sourceforge.net/DTD/sodipodi-0.dtd"
   xmlns="http://www.w3.org/2000/svg"
   xmlns:svg="http://www.w3.org/2000/svg">
  <defs
     id="defs1804" />
  <sodipodi:namedview
     id="namedview1802"
     pagecolor="#ffffff"
     bordercolor="#000000"
     borderopacity="0.25"
     inkscape:showpageshadow="2"
     inkscape:pageopacity="0"
     inkscape:pagecheckerboard="0"
     inkscape:deskcolor="#d1d1d1"
     showgrid="false"
     inkscape:zoom="30.053454"
     inkscape:cx="10.547872"
     inkscape:cy="11.962019"
     inkscape:window-width="3440"
     inkscape:window-height="1371"
     inkscape:window-x="0"
     inkscape:window-y="32"
     inkscape:window-maximized="1"
     inkscape:current-layer="svg1800" />
  <ellipse
     style="fill:#ffffff;stroke:none;stroke-width:3.60753"
     id="path285"
     cx="11.780688"
     cy="11.493961"
     rx="8.6373405"
     ry="8.2456312" />
  <path
     style="color:#000000;fill:#65a30d;stroke-linecap:round;stroke-linejoin:round;stroke-width:0;stroke-dasharray:none"
     d="M 12,1.5 C 6.2187844,1.5 1.5,6.21878 1.5,12 1.5,17.78122 6.2187844,22.5 12,22.5 17.781216,22.5 22.5,17.78122 22.5,12 22.5,6.21878 17.781216,1.5 12,1.5 Z m 0,3 c 4.1599,0 7.5,3.3400977 7.5,7.5 0,4.159902 -3.3401,7.5 -7.5,7.5 C 7.8401003,19.5 4.5,16.159902 4.5,12 4.5,7.8400977 7.8401003,4.5 12,4.5 Z m 2.753906,3.7695313 a 1.5,1.5 0 0 0 -0.974609,0.609375 L 11.058594,12.6875 10.060547,11.689453 a 1.5,1.5 0 0 0 -2.1210939,0 1.5,1.5 0 0 0 0,2.121094 l 2.2499999,2.25 a 1.50015,1.50015 0 0 0 2.28125,-0.189453 l 3.75,-5.25 A 1.5,1.5 0 0 0 15.871094,8.5292969 1.5,1.5 0 0 0 14.753906,8.2695313 Z"
     id="path1798" />
</svg>
