<svg fill="none" viewBox="0 0 24 24" stroke-width="1.5" stroke="#115e59" xmlns="http://www.w3.org/2000/svg">
    <ellipse style="fill:#fff;stroke:none;stroke-width:3.60753" cx="11.781" cy="11.494" rx="8.637" ry="8.246" stroke="none"/>
    <path style="color:#000;fill:#115e59;stroke-linecap:round;stroke-linejoin:round;stroke-width:0;stroke-dasharray:none" d="M12 1.5C6.219 1.5 1.5 6.219 1.5 12S6.219 22.5 12 22.5 22.5 17.781 22.5 12 17.781 1.5 12 1.5Zm0 3c4.16 0 7.5 3.34 7.5 7.5s-3.34 7.5-7.5 7.5-7.5-3.34-7.5-7.5S7.84 4.5 12 4.5Zm2.754 3.77a1.5 1.5 0 0 0-.975.609l-2.72 3.809-.998-.999a1.5 1.5 0 0 0-2.122 0 1.5 1.5 0 0 0 0 2.122l2.25 2.25a1.5 1.5 0 0 0 2.282-.19l3.75-5.25a1.5 1.5 0 0 0-.35-2.092 1.5 1.5 0 0 0-1.117-.26Z" stroke="none"/>
</svg>
