<?xml version="1.0" encoding="UTF-8" standalone="no"?>
<!-- Created with Inkscape (http://www.inkscape.org/) -->

<svg
   xmlns:dc="http://purl.org/dc/elements/1.1/"
   xmlns:cc="http://creativecommons.org/ns#"
   xmlns:rdf="http://www.w3.org/1999/02/22-rdf-syntax-ns#"
   xmlns:svg="http://www.w3.org/2000/svg"
   xmlns="http://www.w3.org/2000/svg"
   xmlns:sodipodi="http://sodipodi.sourceforge.net/DTD/sodipodi-0.dtd"
   xmlns:inkscape="http://www.inkscape.org/namespaces/inkscape"
   width="13.08mm"
   height="5mm"
   viewBox="0 0 13.08 5.0000003"
   version="1.1"
   id="svg844"
   sodipodi:docname="parking_perpendicular.svg"
   inkscape:version="0.92.3 (2405546, 2018-03-11)">
  <defs
     id="defs838" />
  <sodipodi:namedview
     id="base"
     pagecolor="#ffffff"
     bordercolor="#666666"
     borderopacity="1.0"
     inkscape:pageopacity="0.0"
     inkscape:pageshadow="2"
     inkscape:zoom="11.2"
     inkscape:cx="21.926656"
     inkscape:cy="9.4938211"
     inkscape:document-units="mm"
     inkscape:current-layer="layer1"
     showgrid="false"
     inkscape:window-width="1920"
     inkscape:window-height="1053"
     inkscape:window-x="0"
     inkscape:window-y="27"
     inkscape:window-maximized="1" />
  <metadata
     id="metadata841">
    <rdf:RDF>
      <cc:Work
         rdf:about="">
        <dc:format>image/svg+xml</dc:format>
        <dc:type
           rdf:resource="http://purl.org/dc/dcmitype/StillImage" />
        <dc:title></dc:title>
      </cc:Work>
    </rdf:RDF>
  </metadata>
  <g
     inkscape:label="Ebene 1"
     inkscape:groupmode="layer"
     id="layer1"
     transform="translate(-93.507941,-157.96894)">
    <path
       style="fill:#000000;stroke-width:0.26458335"
       d=""
       id="path1400"
       inkscape:connector-curvature="0" />
    <path
       inkscape:connector-curvature="0"
       id="path1502"
       d="m 94.407401,162.96024 c 0,-0.004 0.0033,-0.007 0.0073,-0.007 0.0048,0 0.0073,-0.83295 0.0073,-2.48431 0,-1.65136 -0.0024,-2.4843 -0.0073,-2.4843 -0.004,0 -0.0073,-0.003 -0.0073,-0.007 0,-0.005 0.25061,-0.007 0.737301,-0.007 0.486692,0 0.737302,0.002 0.737302,0.007 0,0.004 -0.0033,0.007 -0.0073,0.007 -0.0048,0 -0.0073,0.83294 -0.0073,2.4843 0,1.65136 0.0024,2.48431 0.0073,2.48431 0.004,0 0.0073,0.003 0.0073,0.007 0,0.005 -0.25061,0.007 -0.737302,0.007 -0.486691,0 -0.737301,-0.002 -0.737301,-0.007 z m 3.268829,0 c 0,-0.004 0.003,-0.007 0.007,-0.007 0.005,0 0.007,-0.83295 0.007,-2.48431 0,-1.65136 -0.002,-2.4843 -0.007,-2.4843 -0.004,0 -0.007,-0.003 -0.007,-0.007 0,-0.005 0.25061,-0.007 0.7373,-0.007 0.48669,0 0.7373,0.002 0.7373,0.007 0,0.004 -0.003,0.007 -0.007,0.007 -0.005,0 -0.007,0.83294 -0.007,2.4843 0,1.65136 0.002,2.48431 0.007,2.48431 0.004,0 0.007,0.003 0.007,0.007 0,0.005 -0.25061,0.007 -0.7373,0.007 -0.48669,0 -0.7373,-0.002 -0.7373,-0.007 z m 3.26883,0 c 0,-0.004 0.003,-0.007 0.007,-0.007 0.005,0 0.007,-0.83295 0.007,-2.48431 0,-1.65136 -0.002,-2.4843 -0.007,-2.4843 -0.004,0 -0.007,-0.003 -0.007,-0.007 0,-0.005 0.25061,-0.007 0.7373,-0.007 0.48669,0 0.7373,0.002 0.7373,0.007 0,0.004 -0.003,0.007 -0.007,0.007 -0.005,0 -0.007,0.83294 -0.007,2.4843 0,1.65136 0.002,2.48431 0.007,2.48431 0.004,0 0.007,0.003 0.007,0.007 0,0.005 -0.25061,0.007 -0.7373,0.007 -0.48669,0 -0.7373,-0.002 -0.7373,-0.007 z m 3.26882,0 c 0,-0.004 0.003,-0.007 0.007,-0.007 0.005,0 0.007,-0.83295 0.007,-2.48431 0,-1.65136 -0.002,-2.4843 -0.007,-2.4843 -0.004,0 -0.007,-0.003 -0.007,-0.007 0,-0.005 0.25061,-0.007 0.7373,-0.007 0.48669,0 0.7373,0.002 0.7373,0.007 0,0.004 -0.003,0.007 -0.007,0.007 -0.005,0 -0.007,0.83294 -0.007,2.4843 0,1.65136 0.002,2.48431 0.007,2.48431 0.004,0 0.007,0.003 0.007,0.007 0,0.005 -0.25061,0.007 -0.7373,0.007 -0.48669,0 -0.7373,-0.002 -0.7373,-0.007 z"
       style="fill:#ececec;stroke-width:0.00726405" />
  </g>
</svg>
