<?xml version="1.0" encoding="UTF-8" standalone="no"?>
<!-- Created with Inkscape (http://www.inkscape.org/) -->

<svg
   xmlns:dc="http://purl.org/dc/elements/1.1/"
   xmlns:cc="http://creativecommons.org/ns#"
   xmlns:rdf="http://www.w3.org/1999/02/22-rdf-syntax-ns#"
   xmlns:svg="http://www.w3.org/2000/svg"
   xmlns="http://www.w3.org/2000/svg"
   xmlns:sodipodi="http://sodipodi.sourceforge.net/DTD/sodipodi-0.dtd"
   xmlns:inkscape="http://www.inkscape.org/namespaces/inkscape"
   width="13.08mm"
   height="5mm"
   viewBox="0 0 13.080001 5.0000003"
   version="1.1"
   id="svg844"
   sodipodi:docname="parking_diagonal.svg"
   inkscape:version="0.92.3 (2405546, 2018-03-11)">
  <defs
     id="defs838" />
  <sodipodi:namedview
     id="base"
     pagecolor="#ffffff"
     bordercolor="#666666"
     borderopacity="1.0"
     inkscape:pageopacity="0.0"
     inkscape:pageshadow="2"
     inkscape:zoom="7.919596"
     inkscape:cx="5.8526011"
     inkscape:cy="11.433549"
     inkscape:document-units="mm"
     inkscape:current-layer="layer1"
     showgrid="false"
     inkscape:window-width="1920"
     inkscape:window-height="1053"
     inkscape:window-x="0"
     inkscape:window-y="27"
     inkscape:window-maximized="1" />
  <metadata
     id="metadata841">
    <rdf:RDF>
      <cc:Work
         rdf:about="">
        <dc:format>image/svg+xml</dc:format>
        <dc:type
           rdf:resource="http://purl.org/dc/dcmitype/StillImage" />
        <dc:title></dc:title>
      </cc:Work>
    </rdf:RDF>
  </metadata>
  <g
     inkscape:label="Ebene 1"
     inkscape:groupmode="layer"
     id="layer1"
     transform="translate(-70.64971,-106.02392)">
    <path
       inkscape:connector-curvature="0"
       id="path1404"
       d="m 72.457478,111.02032 c -5e-4,-0.002 -0.0013,-0.007 -0.0018,-0.0104 -0.0018,-0.013 -1.785424,-2.4628 -1.796074,-2.46689 -0.0095,-0.004 -0.01071,-0.15612 -0.01019,-1.25981 5e-4,-1.09273 0.0019,-1.2526 0.01094,-1.23201 0.01334,0.0305 3.581849,4.94316 3.602759,4.9598 0.01495,0.0119 -0.03075,0.0125 -0.894466,0.0127 -0.500633,8e-5 -0.91065,-0.002 -0.91115,-0.004 z m 4.36044,0 c -5e-4,-0.002 -0.0015,-0.007 -0.002,-0.0104 -0.002,-0.014 -3.605991,-4.97061 -3.61462,-4.97102 -0.005,-2e-4 -0.0091,-0.004 -0.0091,-0.008 0,-0.005 0.304691,-0.007 0.91024,-0.005 0.705465,0.002 0.90986,0.004 0.908535,0.0106 -0.002,0.0104 3.589555,4.95653 3.612365,4.97469 0.01495,0.0119 -0.0308,0.0126 -0.894465,0.0127 -0.500635,9e-5 -0.91065,-10e-4 -0.91115,-0.004 z m 4.36044,0 c -5e-4,-0.002 -0.0015,-0.007 -0.002,-0.0104 -0.002,-0.014 -3.605995,-4.97061 -3.61462,-4.97102 -0.005,-2e-4 -0.0091,-0.004 -0.0091,-0.008 0,-0.005 0.30469,-0.007 0.91024,-0.005 0.70546,0.002 0.90986,0.004 0.908535,0.0106 -0.002,0.0104 3.58955,4.95653 3.612365,4.97469 0.01495,0.0119 -0.03075,0.0126 -0.89447,0.0127 -0.50063,9e-5 -0.91065,-10e-4 -0.91115,-0.004 z m 2.535435,-2.51749 c -0.0143,-0.0331 -1.781255,-2.4634 -1.791435,-2.46388 -0.005,-2e-4 -0.0091,-0.004 -0.0091,-0.008 0,-0.005 0.30765,-0.007 0.908425,-0.007 h 0.908425 v 1.25 c 0,0.68749 -0.0015,1.24999 -0.0035,1.24999 -0.002,0 -0.0077,-0.01 -0.0127,-0.0212 z"
       style="fill:#ededed;fill-opacity:0.94117647;stroke-width:0.0072674" />
    <path
       style="fill:#000000;stroke-width:0.26458335"
       d=""
       id="path1400"
       inkscape:connector-curvature="0" />
  </g>
</svg>
