<svg xmlns="http://www.w3.org/2000/svg" width="19.2" height="19.2">
    <path style="fill:#f0f0f0;stroke-width:.32000002;fill-opacity:1" d="m11.042 11.194 8.166-8.23.032 3.23-6.497 6.503L6.246 19.2H3.045Zm3.202 3.199 4.963-4.99.033 3.186-3.295 3.306-3.294 3.305H9.448ZM17.44 17.6c.867-.88 1.792-1.785 1.791-1.735L19.2 19.2h-3.336ZM0 17.436v-1.6l7.942-7.938L15.885-.04l3.124.041-9.564 9.597L0 19.036Zm0-6.403V9.432l4.744-4.736L9.487-.04l3.124.041-6.365 6.396L0 12.634ZM.008 3.02 1.55 1.488 3.046.013l3.212-.02-3.209 3.2L0 6.228Z"/>
</svg>
