<svg viewBox="0 0 48 48" fill="none" xmlns="http://www.w3.org/2000/svg">
    <mask id="a" style="mask-type:alpha" maskUnits="userSpaceOnUse" x="0" y="0" width="48" height="48">
        <path fill="#fff" d="M0 0h48v48H0z"/>
    </mask>
    <g mask="url(#a)">
        <path fill-rule="evenodd" clip-rule="evenodd" d="M48.5 1.5 1 49 48.5 1.5Z" fill="#fff"/>
        <path d="M48.5 1.5 1 49" stroke="#000"/>
        <path fill-rule="evenodd" clip-rule="evenodd" d="M49 25 25 49Z" fill="#fff"/>
        <path d="M49 25 25 49" stroke="#000"/>
        <path fill-rule="evenodd" clip-rule="evenodd" d="M49 13 13 49Z" fill="#fff"/>
        <path d="M49 13 13 49" stroke="#000"/>
        <path fill-rule="evenodd" clip-rule="evenodd" d="M49 37 37 49Z" fill="#fff"/>
        <path d="M49 37 37 49" stroke="#000"/>
        <path fill-rule="evenodd" clip-rule="evenodd" d="M-1 27 27-1-1 27Z" fill="#fff"/>
        <path d="M-1 27 27-1" stroke="#000"/>
        <path fill-rule="evenodd" clip-rule="evenodd" d="M-1 21 21-1Z" fill="#fff"/>
        <path d="M-1 21 21-1" stroke="#000"/>
        <path fill-rule="evenodd" clip-rule="evenodd" d="M-1 39 39-1Z" fill="#fff"/>
        <path d="M-1 39 39-1" stroke="#000"/>
        <path fill-rule="evenodd" clip-rule="evenodd" d="M-1 15 14.5-.5-1 15Z" fill="#fff"/>
        <path d="M-1 15 14.5-.5" stroke="#000"/>
        <path fill-rule="evenodd" clip-rule="evenodd" d="M49 7 7 49Z" fill="#fff"/>
        <path d="M49 7 7 49" stroke="#000"/>
        <path fill-rule="evenodd" clip-rule="evenodd" d="M49 31 31 49Z" fill="#fff"/>
        <path d="M49 31 31 49" stroke="#000"/>
        <path fill-rule="evenodd" clip-rule="evenodd" d="M49 19 19 49Z" fill="#fff"/>
        <path d="M49 19 19 49" stroke="#000"/>
        <path fill-rule="evenodd" clip-rule="evenodd" d="m49 43-6 6Z" fill="#fff"/>
        <path d="m49 43-6 6" stroke="#000"/>
        <path fill-rule="evenodd" clip-rule="evenodd" d="m8.5-.5-9 9 9-9Z" fill="#fff"/>
        <path d="m8.5-.5-9 9" stroke="#000"/>
        <path fill-rule="evenodd" clip-rule="evenodd" d="m2.5-.5-3 3 3-3Z" fill="#fff"/>
        <path d="m2.5-.5-3 3" stroke="#000"/>
        <path fill-rule="evenodd" clip-rule="evenodd" d="M-1 33 33-1-1 33Z" fill="#fff"/>
        <path d="M-1 33 33-1" stroke="#000"/>
        <path fill-rule="evenodd" clip-rule="evenodd" d="M-1 45 45-1Z" fill="#fff"/>
        <path d="M-1 45 45-1" stroke="#000"/>
    </g>
</svg>
