<svg xmlns="http://www.w3.org/2000/svg" width="49.436" height="5mm" viewBox="0 0 13.08 5">
    <path d="M72.457 111.02a.154.154 0 0 1-.001-.01 250.33 250.33 0 0 0-1.796-2.467c-.01-.004-.011-.156-.01-1.26 0-1.093.001-1.252.01-1.232.014.03 3.582 4.943 3.603 4.96.015.012-.03.013-.894.013-.501 0-.911-.002-.912-.004zm4.36 0a.14.14 0 0 1-.001-.01c-.002-.014-3.606-4.97-3.615-4.971-.005 0-.009-.004-.009-.008 0-.005.305-.007.91-.005.706.002.91.004.909.01-.002.01 3.59 4.957 3.612 4.975.015.012-.03.013-.894.013-.5 0-.91-.001-.911-.004zm4.361 0a.14.14 0 0 1-.002-.01 943.2 943.2 0 0 0-3.614-4.971c-.005 0-.01-.004-.01-.008 0-.005.305-.007.91-.005.706.002.91.004.91.01-.003.01 3.589 4.957 3.612 4.975.015.012-.031.013-.895.013-.5 0-.91-.001-.91-.004zm2.536-2.517a195.149 195.149 0 0 0-1.792-2.464c-.005 0-.009-.004-.009-.008 0-.005.308-.007.909-.007h.908v1.25c0 .687-.001 1.25-.003 1.25s-.008-.01-.013-.021z" style="fill:#ededed;fill-opacity:.94117647;stroke-width:.0072674" transform="translate(-70.65 -106.024)"/>
</svg>
